<?xml version="1.0" encoding="UTF-8"?>
<svg version="1.1" xmlns="http://www.w3.org/2000/svg" width="740" height="740">
<path d="M0 0 C244.2 0 488.4 0 740 0 C740 244.2 740 488.4 740 740 C495.8 740 251.6 740 0 740 C0 495.8 0 251.6 0 0 Z " fill="#DB6577" transform="translate(0,0)"/>
<path d="M0 0 C1.40321623 -0.00243757 2.8064307 -0.00616614 4.2096405 -0.01106262 C7.96560605 -0.02033916 11.72130495 -0.0111622 15.47724938 0.00226951 C19.43585685 0.01372184 23.39445381 0.00946628 27.35307312 0.00752258 C33.9906339 0.00664442 40.6280916 0.01762342 47.265625 0.03613281 C54.91269947 0.05733679 62.55962367 0.06079812 70.2067216 0.05457085 C77.60602168 0.04885668 85.00526947 0.05454418 92.404562 0.0657444 C95.53545294 0.07035881 98.66631158 0.07127812 101.79720497 0.06915855 C105.48690038 0.06726073 109.17644501 0.07549296 112.86610603 0.09121895 C114.84742408 0.09741135 116.82876509 0.09397829 118.81008911 0.09014893 C145.39372941 0.24662468 167.89668469 10.87662805 187.0144043 28.87231445 C204.87557092 47.80783697 213.47769863 70.97030374 213.39819336 96.73535156 C213.400909 98.15738605 213.40447313 99.57941913 213.40881348 101.00144958 C213.41787247 104.83622003 213.41442 108.67088194 213.40805531 112.5056541 C213.4029605 116.53637004 213.40769646 120.56707724 213.41082764 124.59779358 C213.41445761 131.36534274 213.40969412 138.13284813 213.40014648 144.90039062 C213.38926821 152.7007034 213.39278687 160.50091155 213.4037993 168.30122179 C213.41290512 175.02256787 213.41414126 181.74388264 213.40892196 188.46523291 C213.40581975 192.46894992 213.40534432 196.47261793 213.41199493 200.47633171 C213.41781577 204.24308807 213.41368581 208.00971093 213.40220642 211.77645302 C213.39834429 213.80077562 213.40420518 215.82510965 213.41046143 217.84942627 C213.29703428 242.57036638 204.25481562 263.93791647 188.1394043 282.37231445 C187.47166992 283.14188477 186.80393555 283.91145508 186.1159668 284.7043457 C171.7105199 300.11270346 148.39498532 311.75559996 127.23532295 312.47042084 C123.58596171 312.51674979 119.93774336 312.53032231 116.28808594 312.53344727 C114.88445914 312.53808219 113.48083359 312.54310775 112.07720947 312.54849243 C108.27708455 312.56155869 104.47697725 312.56805076 100.67683339 312.57250309 C98.29518289 312.57544486 95.91353708 312.57955183 93.53188896 312.58400726 C86.05891223 312.59767073 78.58594637 312.60734143 71.11295801 312.61120915 C62.5271118 312.61567881 53.94142566 312.63318056 45.35562807 312.66220975 C38.69371763 312.68394076 32.03185182 312.69391958 25.36990637 312.69525027 C21.40338716 312.69629073 17.43701863 312.70203362 13.47053719 312.72006989 C9.73004026 312.73674811 5.98980406 312.73861226 2.24928284 312.72993088 C0.25092137 312.72881326 -1.74743222 312.74237939 -3.7457428 312.75668335 C-15.97358583 312.70140531 -28.40723933 311.13143076 -39.6730957 306.12231445 C-40.37829346 305.8193042 -41.08349121 305.51629395 -41.81005859 305.20410156 C-59.32814458 297.45498593 -73.11260712 285.02847542 -83.8605957 269.37231445 C-84.33625977 268.68008789 -84.81192383 267.98786133 -85.30200195 267.2746582 C-95.98548083 250.96477039 -98.99834617 233.45054278 -99.03759766 214.33154297 C-99.04387359 212.91953875 -99.05052136 211.50753615 -99.05751038 210.09553528 C-99.078426 205.48077517 -99.08890381 200.86601522 -99.09887695 196.2512207 C-99.10292975 194.65303977 -99.10704682 193.054859 -99.11122704 191.45667839 C-99.13025448 183.94152508 -99.14448832 176.42638142 -99.152839 168.91120869 C-99.16259018 160.28175547 -99.18886436 151.65256019 -99.2293399 143.02319771 C-99.2596669 136.32388568 -99.27432362 129.62464689 -99.27762002 122.92526764 C-99.27995239 118.93799748 -99.28867235 114.95100359 -99.31408119 110.96380806 C-99.5067145 79.11105743 -99.5067145 79.11105743 -94.8605957 65.37231445 C-94.58555206 64.53102493 -94.31050842 63.68973541 -94.02713013 62.82295227 C-84.98470036 37.59604948 -65.24593973 19.32301291 -41.8605957 7.37231445 C-28.72158969 1.29390265 -14.29525775 -0.0859237 0 0 Z " fill="#F8626A" transform="translate(312.860595703125,213.627685546875)"/>
<path d="M0 0 C1.40321623 -0.00243757 2.8064307 -0.00616614 4.2096405 -0.01106262 C7.96560605 -0.02033916 11.72130495 -0.0111622 15.47724938 0.00226951 C19.43585685 0.01372184 23.39445381 0.00946628 27.35307312 0.00752258 C33.9906339 0.00664442 40.6280916 0.01762342 47.265625 0.03613281 C54.91269947 0.05733679 62.55962367 0.06079812 70.2067216 0.05457085 C77.60602168 0.04885668 85.00526947 0.05454418 92.404562 0.0657444 C95.53545294 0.07035881 98.66631158 0.07127812 101.79720497 0.06915855 C105.48690038 0.06726073 109.17644501 0.07549296 112.86610603 0.09121895 C114.84742408 0.09741135 116.82876509 0.09397829 118.81008911 0.09014893 C145.39372941 0.24662468 167.89668469 10.87662805 187.0144043 28.87231445 C204.87557092 47.80783697 213.47769863 70.97030374 213.39819336 96.73535156 C213.400909 98.15738605 213.40447313 99.57941913 213.40881348 101.00144958 C213.41787247 104.83622003 213.41442 108.67088194 213.40805531 112.5056541 C213.4029605 116.53637004 213.40769646 120.56707724 213.41082764 124.59779358 C213.41445761 131.36534274 213.40969412 138.13284813 213.40014648 144.90039062 C213.38926821 152.7007034 213.39278687 160.50091155 213.4037993 168.30122179 C213.41290512 175.02256787 213.41414126 181.74388264 213.40892196 188.46523291 C213.40581975 192.46894992 213.40534432 196.47261793 213.41199493 200.47633171 C213.41781577 204.24308807 213.41368581 208.00971093 213.40220642 211.77645302 C213.39834429 213.80077562 213.40420518 215.82510965 213.41046143 217.84942627 C213.29703428 242.57036638 204.25481562 263.93791647 188.1394043 282.37231445 C187.47166992 283.14188477 186.80393555 283.91145508 186.1159668 284.7043457 C171.7105199 300.11270346 148.39498532 311.75559996 127.23532295 312.47042084 C123.58596171 312.51674979 119.93774336 312.53032231 116.28808594 312.53344727 C114.88445914 312.53808219 113.48083359 312.54310775 112.07720947 312.54849243 C108.27708455 312.56155869 104.47697725 312.56805076 100.67683339 312.57250309 C98.29518289 312.57544486 95.91353708 312.57955183 93.53188896 312.58400726 C86.05891223 312.59767073 78.58594637 312.60734143 71.11295801 312.61120915 C62.5271118 312.61567881 53.94142566 312.63318056 45.35562807 312.66220975 C38.69371763 312.68394076 32.03185182 312.69391958 25.36990637 312.69525027 C21.40338716 312.69629073 17.43701863 312.70203362 13.47053719 312.72006989 C9.73004026 312.73674811 5.98980406 312.73861226 2.24928284 312.72993088 C0.25092137 312.72881326 -1.74743222 312.74237939 -3.7457428 312.75668335 C-15.97358583 312.70140531 -28.40723933 311.13143076 -39.6730957 306.12231445 C-40.37829346 305.8193042 -41.08349121 305.51629395 -41.81005859 305.20410156 C-59.32814458 297.45498593 -73.11260712 285.02847542 -83.8605957 269.37231445 C-84.33625977 268.68008789 -84.81192383 267.98786133 -85.30200195 267.2746582 C-95.98548083 250.96477039 -98.99834617 233.45054278 -99.03759766 214.33154297 C-99.04387359 212.91953875 -99.05052136 211.50753615 -99.05751038 210.09553528 C-99.078426 205.48077517 -99.08890381 200.86601522 -99.09887695 196.2512207 C-99.10292975 194.65303977 -99.10704682 193.054859 -99.11122704 191.45667839 C-99.13025448 183.94152508 -99.14448832 176.42638142 -99.152839 168.91120869 C-99.16259018 160.28175547 -99.18886436 151.65256019 -99.2293399 143.02319771 C-99.2596669 136.32388568 -99.27432362 129.62464689 -99.27762002 122.92526764 C-99.27995239 118.93799748 -99.28867235 114.95100359 -99.31408119 110.96380806 C-99.5067145 79.11105743 -99.5067145 79.11105743 -94.8605957 65.37231445 C-94.58555206 64.53102493 -94.31050842 63.68973541 -94.02713013 62.82295227 C-84.98470036 37.59604948 -65.24593973 19.32301291 -41.8605957 7.37231445 C-28.72158969 1.29390265 -14.29525775 -0.0859237 0 0 Z M-35.9230957 30.87231445 C-36.59010498 31.21198242 -37.25711426 31.55165039 -37.94433594 31.90161133 C-44.94535773 35.65960509 -50.39747172 40.66694185 -55.8605957 46.37231445 C-56.55926758 47.09805664 -57.25793945 47.82379883 -57.9777832 48.5715332 C-76.08118348 68.34541891 -76.33543354 92.56829593 -76.26357222 117.92042351 C-76.25586723 121.49899817 -76.26305078 125.07755212 -76.26773071 128.65612793 C-76.27315724 134.66068734 -76.26607898 140.66513532 -76.25170898 146.66967773 C-76.23538844 153.56802825 -76.24067917 160.46611257 -76.2571882 167.36445665 C-76.27089239 173.33442952 -76.27267953 179.30432322 -76.26487219 185.27430677 C-76.26024429 188.8192527 -76.25943343 192.36407437 -76.26948166 195.90901184 C-76.33872281 224.24648929 -74.00122935 247.2853544 -53.6418457 268.5793457 C-36.03455598 286.26082344 -14.92909563 289.85187834 9.04343587 289.90319794 C11.82723587 289.90217907 14.6109299 289.89007094 17.39469457 289.8766849 C21.05467124 289.86262717 24.71462445 289.86931753 28.37461853 289.87281799 C34.51447557 289.87550369 40.65413528 289.86218615 46.79394531 289.83886719 C53.84853478 289.81225594 60.90279506 289.81052032 67.95741755 289.82225555 C74.80196513 289.83310921 81.64639598 289.82678803 88.49093437 289.81270027 C91.37767807 289.80700696 94.26433445 289.80696967 97.15107918 289.81176567 C125.62959657 289.92498534 125.62959657 289.92498534 152.1394043 280.37231445 C153.55672852 279.60081055 153.55672852 279.60081055 155.00268555 278.8137207 C166.78541825 271.86407497 176.4072306 261.69188214 182.2019043 249.30981445 C182.5402832 248.62209961 182.87866211 247.93438477 183.22729492 247.22583008 C187.82714305 237.48340512 189.60834061 227.75615585 189.40405273 217.03710938 C189.39634354 215.97324509 189.38863434 214.9093808 189.38069153 213.8132782 C189.3516392 210.32611849 189.30049451 206.83967432 189.2487793 203.3527832 C189.22320526 200.88830317 189.1989173 198.4238095 189.17584229 195.95930481 C189.11126756 189.47572426 189.02747851 182.99252423 188.94012451 176.50921631 C188.87324044 171.30119277 188.82029702 166.09307296 188.76798248 160.88488579 C188.54951294 139.16755255 188.31718305 117.44634842 187.7175293 95.7355957 C187.68955261 94.54709518 187.66157593 93.35859467 187.63275146 92.13407898 C187.44105603 86.24647659 186.82704067 81.02298952 185.1394043 75.37231445 C184.4794043 75.37231445 183.8194043 75.37231445 183.1394043 75.37231445 C183.4694043 74.38231445 183.7994043 73.39231445 184.1394043 72.37231445 C183.28276137 69.3351259 182.41709663 67.6413289 180.1394043 65.43481445 C178.1394043 63.37231445 178.1394043 63.37231445 177.1394043 60.18481445 C176.8094043 59.25668945 176.4794043 58.32856445 176.1394043 57.37231445 C174.10696882 56.40354388 174.10696882 56.40354388 172.1394043 56.37231445 C171.8094043 54.72231445 171.4794043 53.07231445 171.1394043 51.37231445 C168.2139399 51.14870766 168.2139399 51.14870766 166.1394043 52.37231445 C166.1394043 55.30543889 166.18913015 58.21569278 166.2800293 61.14575195 C166.3171606 63.01292619 166.35359498 64.88011439 166.3894043 66.74731445 C166.42291992 67.6805957 166.45643555 68.61387695 166.4909668 69.57543945 C166.57681887 75.63659548 165.90875471 78.63117838 162.1394043 83.37231445 C161.80231368 86.12490257 161.80231368 86.12490257 162.1394043 88.37231445 C160.8194043 88.37231445 159.4994043 88.37231445 158.1394043 88.37231445 C157.8094043 89.03231445 157.4794043 89.69231445 157.1394043 90.37231445 C156.1700293 90.18668945 155.2006543 90.00106445 154.2019043 89.80981445 C153.1912793 89.66543945 152.1806543 89.52106445 151.1394043 89.37231445 C150.8094043 89.70231445 150.4794043 90.03231445 150.1394043 90.37231445 C143.59676153 90.88290182 137.49144107 90.26809305 131.13549805 88.7121582 C129.07385487 88.15884351 129.07385487 88.15884351 127.1394043 89.37231445 C127.4694043 88.38231445 127.7994043 87.39231445 128.1394043 86.37231445 C126.85651673 83.81727489 126.85651673 83.81727489 125.1394043 81.37231445 C124.4794043 80.38231445 123.8194043 79.39231445 123.1394043 78.37231445 C122.4794043 78.37231445 121.8194043 78.37231445 121.1394043 78.37231445 C120.5144043 76.62231445 120.5144043 76.62231445 120.1394043 74.37231445 C120.45264648 73.75614258 120.76588867 73.1399707 121.08862305 72.50512695 C122.23126175 70.18586772 122.42850987 68.5604909 122.5769043 65.99731445 C123.11204532 60.28914356 124.98155112 56.33217462 129.1394043 52.37231445 C129.1394043 51.71231445 129.1394043 51.05231445 129.1394043 50.37231445 C129.9025293 50.33106445 130.6656543 50.28981445 131.4519043 50.24731445 C134.46345543 49.59407836 134.46345543 49.59407836 135.9519043 46.30981445 C136.3437793 45.34043945 136.7356543 44.37106445 137.1394043 43.37231445 C139.5769043 43.74731445 139.5769043 43.74731445 142.1394043 44.37231445 C142.4694043 45.03231445 142.7994043 45.69231445 143.1394043 46.37231445 C144.7894043 46.37231445 146.4394043 46.37231445 148.1394043 46.37231445 C148.1394043 45.71231445 148.1394043 45.05231445 148.1394043 44.37231445 C149.1294043 44.37231445 150.1194043 44.37231445 151.1394043 44.37231445 C152.2878498 39.28818918 152.2878498 39.28818918 151.1394043 34.37231445 C148.19945411 32.3447626 146.86236427 32.37231445 143.1394043 32.37231445 C143.1394043 31.71231445 143.1394043 31.05231445 143.1394043 30.37231445 C141.1594043 31.03231445 139.1794043 31.69231445 137.1394043 32.37231445 C137.1394043 31.71231445 137.1394043 31.05231445 137.1394043 30.37231445 C136.4794043 30.37231445 135.8194043 30.37231445 135.1394043 30.37231445 C135.1394043 29.38231445 135.1394043 28.39231445 135.1394043 27.37231445 C128.3285529 24.85419722 121.62032679 25.04415568 114.42407227 25.00585938 C113.03527512 24.99163217 111.64648606 24.97659576 110.25770569 24.96081543 C106.49914356 24.92080973 102.74058888 24.8932401 98.98189688 24.86880279 C95.83382567 24.84734566 92.68581387 24.82014895 89.5377866 24.7930935 C82.10165673 24.72942973 74.6655013 24.67625068 67.22924805 24.62939453 C59.58623703 24.58103401 51.94354551 24.51417118 44.30076301 24.43822974 C37.71710045 24.3735274 31.1334136 24.32094153 24.54957497 24.27774125 C20.62726411 24.25185839 16.70512654 24.22147118 12.78295517 24.17918968 C9.08768603 24.1398442 5.3926097 24.11577801 1.69715691 24.10280609 C-0.28395214 24.09224951 -2.26496348 24.0666115 -4.2459259 24.04029846 C-15.34638473 24.02746679 -25.98741619 25.73503411 -35.9230957 30.87231445 Z " fill="#FDFCFB" transform="translate(312.860595703125,213.627685546875)"/>
<path d="M0 0 C2.48779261 1.92026492 4.81261835 3.92713908 7.125 6.0546875 C7.96546875 6.80363281 8.8059375 7.55257813 9.671875 8.32421875 C19.40447647 17.45221922 25.70148195 28.53814211 30.125 41.0546875 C30.4446875 41.90417969 30.764375 42.75367188 31.09375 43.62890625 C35.35943432 57.15665513 35.19866652 75.79830317 30.125 89.0546875 C29.48691406 90.75431641 29.48691406 90.75431641 28.8359375 92.48828125 C19.86767409 114.7650639 4.94294367 129.5584144 -16.86816406 139.20898438 C-34.94005944 146.82468335 -56.83185998 146.53435389 -75.00878906 139.19287109 C-83.36474083 135.55252328 -91.12008973 131.23025328 -97.875 125.0546875 C-98.76703125 124.25417969 -99.6590625 123.45367187 -100.578125 122.62890625 C-116.07759515 107.99757583 -124.60345111 88.65361639 -125.2800293 67.39697266 C-125.51968247 47.34178592 -119.61585317 28.08460275 -105.875 13.0546875 C-105.07449219 12.16265625 -104.27398437 11.270625 -103.44921875 10.3515625 C-76.12515067 -18.59375998 -32.58579559 -22.04854104 0 0 Z " fill="#FDFBFA" transform="translate(415.875,304.9453125)"/>
<path d="M0 0 C11.97869946 9.35161971 19.7475599 21.80845685 22.38671875 36.86328125 C23.9306457 53.10113361 19.2026819 67.97243808 9.38671875 80.86328125 C-0.25571432 92.44841582 -15.2111203 98.76111609 -30.0078125 100.19140625 C-46.74879065 100.71749759 -60.22752329 94.63286405 -72.2890625 83.34765625 C-83.19685662 71.68823261 -88.26073396 56.45179413 -87.98828125 40.68359375 C-86.49712661 25.49245581 -79.39412227 11.65299421 -67.61328125 1.86328125 C-47.32109826 -13.41848618 -20.91260024 -14.59818283 0 0 Z " fill="#FA616B" transform="translate(402.61328125,325.13671875)"/>
<path d="M0 0 C17.11651744 -0.04685598 34.23301468 -0.08205517 51.34958172 -0.10362434 C59.29826192 -0.11390837 67.24690212 -0.12791333 75.19555664 -0.15087891 C82.12886023 -0.17090123 89.06213483 -0.18373728 95.99546653 -0.18817699 C99.66183141 -0.19076949 103.32811339 -0.19680208 106.99445152 -0.21146011 C111.10139923 -0.22774438 115.2082056 -0.22797406 119.31518555 -0.22705078 C120.51209518 -0.23424133 121.70900482 -0.24143188 122.94218445 -0.24884033 C133.65718707 -0.2229298 144.22887293 0.7595512 154.25 4.75 C154.92691895 5.01385498 155.60383789 5.27770996 156.30126953 5.54956055 C166.07738967 9.49684208 173.46388848 15.70777559 181 23 C181.71414063 23.68835938 182.42828125 24.37671875 183.1640625 25.0859375 C201.28258619 43.90401809 201.76413744 69.59942612 201.57283282 94.0881176 C201.54865827 97.81153346 201.55194531 101.53494251 201.55152893 105.25842285 C201.54693635 111.48801418 201.52351287 117.71729483 201.48706055 123.94677734 C201.44505289 131.14476773 201.42772691 138.34248105 201.4244408 145.54058695 C201.42084586 153.23782032 201.40201292 160.93495477 201.37732053 168.63214684 C201.37109831 170.8421317 201.3674586 173.05210906 201.36428642 175.26210022 C201.35730286 179.36430834 201.33293371 183.46623123 201.30639648 187.56835938 C201.30573181 188.79007339 201.30506714 190.01178741 201.30438232 191.27052307 C201.28941963 192.9393882 201.28941963 192.9393882 201.27415466 194.64196777 C201.26950416 195.61006126 201.26485365 196.57815475 201.26006222 197.57558441 C201 200 201 200 199 203 C198.99576806 202.45135756 198.99153612 201.90271513 198.98717594 201.33744717 C198.88267659 187.82400047 198.7738457 174.31059419 198.66066074 160.79721737 C198.60604333 154.26155386 198.55273822 147.72588573 198.50268555 141.19018555 C198.28848118 106.77994158 198.28848118 106.77994158 197.52734375 72.37890625 C197.49024796 71.18957993 197.45315216 70.0002536 197.41493225 68.77488708 C197.20921555 63.12469596 196.81013331 57.59639918 196 52 C195.34 52 194.68 52 194 52 C193.9175 50.72125 193.835 49.4425 193.75 48.125 C193.53440074 45.92867742 193.53440074 45.92867742 193 44 C191.06669397 42.90833725 191.06669397 42.90833725 189 42 C187.75 38.375 187.75 38.375 187 35 C186.38125 34.896875 185.7625 34.79375 185.125 34.6875 C183 34 183 34 181 31 C180.67 30.01 180.34 29.02 180 28 C179.01 28.33 178.02 28.66 177 29 C177.99 30.32 178.98 31.64 180 33 C179.01 33 178.02 33 177 33 C177.33 33.66 177.66 34.32 178 35 C178.31728119 38.03385082 178.32434666 41.07658975 178.375 44.125 C178.43107422 45.37023437 178.43107422 45.37023437 178.48828125 46.640625 C178.57881709 53.05861022 176.89927625 56.93781262 173 62 C173.66 62.33 174.32 62.66 175 63 C173.75 65 173.75 65 172 67 C169.60407609 67 167.20796347 66.98446987 164.8125 66.9375 C162.09589405 66.6736984 162.09589405 66.6736984 161 68 C154.48326322 68.50856567 148.34622417 67.90057005 141.99609375 66.4375 C140.01497522 65.92863469 140.01497522 65.92863469 138 66 C137.67 64.02 137.34 62.04 137 60 C136.01 59.67 135.02 59.34 134 59 C134 57.68 134 56.36 134 55 C133.34 55 132.68 55 132 55 C130.875 53.25 130.875 53.25 130 51 C130.65883848 49.66278122 131.32650957 48.32989957 132 47 C132.30413794 44.87759665 132.30413794 44.87759665 132.375 42.6875 C132.79464827 37.90509333 134.37446673 34.98064721 137 31 C137.66 31 138.32 31 139 31 C139.061875 30.38125 139.12375 29.7625 139.1875 29.125 C139.455625 28.42375 139.72375 27.7225 140 27 C140.804375 26.690625 141.60875 26.38125 142.4375 26.0625 C145.24042174 25.23919605 145.24042174 25.23919605 146.1875 22.4375 C146.455625 21.633125 146.72375 20.82875 147 20 C147.99 19.505 147.99 19.505 149 19 C149 19.66 149 20.32 149 21 C150.65 20.67 152.3 20.34 154 20 C154 20.99 154 21.98 154 23 C155.65 23 157.3 23 159 23 C159 22.34 159 21.68 159 21 C159.99 21 160.98 21 162 21 C162 18.03 162 15.06 162 12 C159.07735566 10.53867783 157.07536854 9.65900754 154 9 C154 8.34 154 7.68 154 7 C153.01 7.66 152.02 8.32 151 9 C150.01 9 149.02 9 148 9 C148 8.34 148 7.68 148 7 C147.34 7 146.68 7 146 7 C146 6.01 146 5.02 146 4 C145.030625 4.020625 144.06125 4.04125 143.0625 4.0625 C140 4 140 4 139 3 C137.20342937 2.89139635 135.40258243 2.85312158 133.60276794 2.84178162 C131.84635483 2.82709839 131.84635483 2.82709839 130.05445862 2.81211853 C128.11022255 2.80348534 128.11022255 2.80348534 126.12670898 2.79467773 C124.75711772 2.7851044 123.38752945 2.77509465 122.01794434 2.76467896 C118.2888027 2.73756469 114.55964832 2.71659057 110.83046222 2.69667697 C106.93733043 2.67485749 103.04423821 2.64744911 99.15113831 2.62062073 C91.77404723 2.57063906 84.39693426 2.52572061 77.01980025 2.48259836 C68.62329648 2.43327267 60.22683239 2.37833729 51.83036697 2.32291877 C34.55361463 2.20901472 17.27682549 2.10219412 0 2 C0 1.34 0 0.68 0 0 Z " fill="#D6698E" transform="translate(302,237)"/>
<path d="M0 0 C5.1621509 3.14555105 9.32821777 7.14235655 11.33984375 12.92578125 C12.30919545 19.34773626 12.07404604 25.47869947 8.74609375 31.171875 C5.28284037 35.49132158 0.85848006 38.95686037 -4.66015625 39.92578125 C-11.5154291 40.63695752 -16.99163868 40.02882849 -22.66015625 35.92578125 C-26.82632292 32.0564407 -29.24817346 27.76212427 -30.06640625 22.12890625 C-30.27619489 15.52056421 -29.60930656 11.11364708 -25.4765625 5.83984375 C-18.55336229 -1.45557153 -9.68731857 -3.91191279 0 0 Z " fill="#FDFAFA" transform="translate(466.66015625,263.07421875)"/>
<path d="M0 0 C0.33 0 0.66 0 1 0 C1.0154612 0.95362427 1.0154612 0.95362427 1.03123474 1.92651367 C1.1412986 8.6777985 1.25567567 15.42900142 1.37231445 22.18017578 C1.41503792 24.6837387 1.45674151 27.18731928 1.49731445 29.69091797 C1.69950784 42.12705941 1.9416296 54.54843927 2.53515625 66.97265625 C3.17978046 80.79279865 3.07527446 94.60581854 3 108.4375 C2.97325465 113.45702902 2.95339871 118.47652003 2.9375 123.49609375 C2.92920166 124.62115829 2.92090332 125.74622284 2.91235352 126.90538025 C2.89332884 133.02787612 3.19015529 138.92975159 4 145 C4.66 145 5.32 145 6 145 C6.66 145.66 7.32 146.32 8 147 C8.66 147 9.32 147 10 147 C10.125 153.75 10.125 153.75 9 156 C11.27415287 159.37088267 11.27415287 159.37088267 15 161 C15.33 161.99 15.66 162.98 16 164 C16.66 164.33 17.32 164.66 18 165 C17.67 165.99 17.34 166.98 17 168 C17.66 168 18.32 168 19 168 C19.20625 168.9075 19.4125 169.815 19.625 170.75 C21.32927756 174.77829242 23.34675205 175.74586829 27 178 C27.33 178.99 27.66 179.98 28 181 C31.42168849 182.66881935 31.42168849 182.66881935 35 184 C35.66 184.33 36.32 184.66 37 185 C37 185.99 37 186.98 37 188 C37.66 187.67 38.32 187.34 39 187 C39.33 186.01 39.66 185.02 40 184 C41.32 184.33 42.64 184.66 44 185 C44 186.65 44 188.3 44 190 C50.06282256 192.90510248 55.21664673 194 62 194 C68.66666667 194 75.33333333 194 82 194 C82 194.66 82 195.32 82 196 C84.97 195.67 87.94 195.34 91 195 C91 194.67 91 194.34 91 194 C93.64 194 96.28 194 99 194 C99 194.66 99 195.32 99 196 C100.19238281 195.97679687 101.38476562 195.95359375 102.61328125 195.9296875 C104.17968124 195.91092822 105.746088 195.89272819 107.3125 195.875 C108.09818359 195.85824219 108.88386719 195.84148437 109.69335938 195.82421875 C110.45068359 195.81777344 111.20800781 195.81132812 111.98828125 195.8046875 C112.68477783 195.79421387 113.38127441 195.78374023 114.09887695 195.77294922 C116 196 116 196 119 198 C111.71418747 198.09364197 104.42850953 198.16423333 97.14221191 198.20724869 C93.75702305 198.22791829 90.37225275 198.25584479 86.98730469 198.30175781 C62.26489329 198.61238678 41.96165584 197.28554013 23.3046875 179.33203125 C22.54414063 178.56246094 21.78359375 177.79289063 21 177 C20.21882813 176.24074219 19.43765625 175.48148438 18.6328125 174.69921875 C3.48156032 159.11434487 -0.35537153 138.52478105 -0.22705078 117.4987793 C-0.22734283 116.21916321 -0.22763489 114.93954712 -0.22793579 113.62115479 C-0.22850292 110.15710077 -0.21685406 106.69318903 -0.20278788 103.2291677 C-0.19017212 99.59238669 -0.18910156 95.9556014 -0.18673706 92.31880188 C-0.18055383 85.45204776 -0.16418638 78.58535833 -0.14403808 71.71863252 C-0.12158001 63.89261243 -0.11066089 56.06658904 -0.10064721 48.24054468 C-0.07981685 32.16032542 -0.0447032 16.080171 0 0 Z " fill="#F18E71" transform="translate(237,304)"/>
<path d="M0 0 C0.33 0 0.66 0 1 0 C1.98176867 7.88733479 2.15680783 15.68685082 2.17358398 23.62866211 C2.17990443 24.97188016 2.18667183 26.31509618 2.19384766 27.65830994 C2.20841318 30.53157555 2.22017935 33.40483366 2.22979546 36.27812004 C2.24537604 40.83124849 2.26932316 45.38431014 2.29469299 49.93739319 C2.36556118 62.87805951 2.42563003 75.8187627 2.47680664 88.75952148 C2.50520322 95.92145484 2.54062721 103.08332022 2.58346039 110.2451821 C2.61005713 114.76143925 2.62806874 119.27761977 2.63949764 123.79393947 C2.64869219 126.61445885 2.66608442 129.43488561 2.68567657 132.25535011 C2.69658289 134.16514136 2.69789581 136.07498007 2.69880676 137.98480225 C2.91678913 164.04453788 13.42764872 185.90899606 31.01953125 204.80859375 C32.81682856 206.79731918 34.43188956 208.82838964 36 211 C33.75 210.875 33.75 210.875 31 210 C29.63636792 208.02053408 28.30581356 206.0180755 27 204 C25.96875 203.34 24.9375 202.68 23.875 202 C20.41743084 199.5947345 20.13738948 197.93711742 19 194 C18.01 193.67 17.02 193.34 16 193 C14.61328125 190.71484375 14.61328125 190.71484375 13.3125 187.9375 C12.65701172 186.55884766 12.65701172 186.55884766 11.98828125 185.15234375 C11.66214844 184.44207031 11.33601562 183.73179687 11 183 C10.505 183.99 10.505 183.99 10 185 C8.35 184.67 6.7 184.34 5 184 C5.66 182.35 6.32 180.7 7 179 C7.66 179 8.32 179 9 179 C8.53722656 178.46246094 8.07445312 177.92492187 7.59765625 177.37109375 C5.73724647 174.6100455 5.15305686 172.30499479 4.4375 169.0625 C3.47867676 164.75858661 3.47867676 164.75858661 1.94921875 160.640625 C0.6423394 157.00502648 0.53957382 153.52412725 0.375 149.6875 C0.33632812 148.94693359 0.29765625 148.20636719 0.2578125 147.44335938 C0.16418295 145.62928691 0.08103149 143.81467884 0 142 C-0.66 142 -1.32 142 -2 142 C-1.98747192 141.4373645 -1.97494385 140.874729 -1.96203613 140.29504395 C-1.42073423 115.82353384 -0.90027567 91.3533407 -0.875 66.875 C-0.87250244 66.01898193 -0.87000488 65.16296387 -0.86743164 64.28100586 C-0.86164175 61.8930231 -0.86295675 59.50517102 -0.8671875 57.1171875 C-0.86520355 56.41757904 -0.8632196 55.71797058 -0.86117554 54.99716187 C-0.8384336 51.37609752 -0.8384336 51.37609752 -2 48 C-1.67 47.01 -1.34 46.02 -1 45 C-0.92648746 42.12033004 -0.90832305 39.26551751 -0.9375 36.38671875 C-0.94128662 35.53954788 -0.94507324 34.69237701 -0.94897461 33.8195343 C-0.96530864 30.19644257 -0.99336179 26.57346376 -1.02050781 22.95043945 C-1.03865069 20.30420458 -1.05071184 17.65798837 -1.0625 15.01171875 C-1.07079834 14.19902023 -1.07909668 13.38632172 -1.08764648 12.54899597 C-1.10609137 8.24563088 -0.86304766 4.23921198 0 0 Z " fill="#EC9373" transform="translate(212,294)"/>
<path d="M0 0 C4.01958762 1.44292889 7.31093979 3.41023528 10.875 5.75 C32.0255559 19.07579186 54.12900986 19.45120182 78.42265463 19.44024777 C82.24138495 19.44220783 86.06001467 19.46261233 89.87869263 19.48143005 C98.72279157 19.52210027 107.56687004 19.54096248 116.41104126 19.55760193 C127.71941115 19.58008169 139.0277243 19.61340984 150.33600056 19.66480106 C154.87485959 19.68472258 159.41358856 19.6943023 163.95248961 19.69575322 C166.76272062 19.69849545 169.57287887 19.70930484 172.38307953 19.72226334 C174.31245401 19.7286071 176.24185319 19.72493876 178.17123413 19.72102356 C179.88240417 19.73126556 179.88240417 19.73126556 181.62814331 19.74171448 C183.12069547 19.74416593 183.12069547 19.74416593 184.64340019 19.74666691 C187 20 187 20 189 22 C170.06759951 22.04673028 151.13521073 22.08199389 132.20276451 22.10362434 C123.41201219 22.11393489 114.62129572 22.127991 105.83056641 22.15087891 C98.16815817 22.17081955 90.50577589 22.18371805 82.84334242 22.18817699 C78.78652395 22.19078322 74.72977974 22.19690442 70.67298508 22.21146011 C66.85304805 22.22505467 63.03321576 22.22921885 59.21325684 22.22621536 C57.81284643 22.22676469 56.41243245 22.230731 55.012043 22.23841095 C53.09613849 22.24840094 51.18017753 22.24476831 49.26425171 22.24050903 C48.19312826 22.24235262 47.12200481 22.24419621 46.01842308 22.24609566 C42.7351636 21.97840757 40.08137233 21.13716414 37 20 C32.22913232 18.80728308 29.58054126 19.33434863 25 21 C24.34 20.67 23.68 20.34 23 20 C23 18 23 16 23 14 C22.0925 14.04125 21.185 14.0825 20.25 14.125 C17.1217954 14.00468444 15.61385994 13.6085292 13 12 C13 11.34 13 10.68 13 10 C12.38125 10.185625 11.7625 10.37125 11.125 10.5625 C9 11 9 11 7 10 C7 9.01 7 8.02 7 7 C3.91190305 5.23537317 2.76687864 5 -1 5 C-0.67 4.34 -0.34 3.68 0 3 C0 2.01 0 1.02 0 0 Z " fill="#F1845F" transform="translate(249,506)"/>
<path d="M0 0 C0.33 0 0.66 0 1 0 C1 46.86 1 93.72 1 142 C0.01 142 -0.98 142 -2 142 C-1.98747192 141.4373645 -1.97494385 140.874729 -1.96203613 140.29504395 C-1.42073423 115.82353384 -0.90027567 91.3533407 -0.875 66.875 C-0.87250244 66.01898193 -0.87000488 65.16296387 -0.86743164 64.28100586 C-0.86164175 61.8930231 -0.86295675 59.50517102 -0.8671875 57.1171875 C-0.86520355 56.41757904 -0.8632196 55.71797058 -0.86117554 54.99716187 C-0.8384336 51.37609752 -0.8384336 51.37609752 -2 48 C-1.67 47.01 -1.34 46.02 -1 45 C-0.92648746 42.12033004 -0.90832305 39.26551751 -0.9375 36.38671875 C-0.94128662 35.53954788 -0.94507324 34.69237701 -0.94897461 33.8195343 C-0.96530864 30.19644257 -0.99336179 26.57346376 -1.02050781 22.95043945 C-1.03865069 20.30420458 -1.05071184 17.65798837 -1.0625 15.01171875 C-1.07079834 14.19902023 -1.07909668 13.38632172 -1.08764648 12.54899597 C-1.10609137 8.24563088 -0.86304766 4.23921198 0 0 Z " fill="#F27856" transform="translate(212,294)"/>
<path d="M0 0 C0.33 0.99 0.66 1.98 1 3 C1.99 2.67 2.98 2.34 4 2 C4.99 3.485 4.99 3.485 6 5 C8.16252055 5.54319235 8.16252055 5.54319235 10.5625 5.625 C14.91766724 5.91766724 14.91766724 5.91766724 16 7 C17.51928038 7.07179964 19.04167482 7.08392007 20.5625 7.0625 C21.38878906 7.05347656 22.21507812 7.04445312 23.06640625 7.03515625 C24.02353516 7.01775391 24.02353516 7.01775391 25 7 C25.495 8.485 25.495 8.485 26 10 C25.67 10.33 25.34 10.66 25 11 C27.31 11.99 29.62 12.98 32 14 C32 14.66 32 15.32 32 16 C33.32 16.66 34.64 17.32 36 18 C36 18.66 36 19.32 36 20 C36.99 20 37.98 20 39 20 C39 20.66 39 21.32 39 22 C40.32 22 41.64 22 43 22 C43 22.66 43 23.32 43 24 C43.66 24 44.32 24 45 24 C45.495 26.97 45.495 26.97 46 30 C44.96875 29.195625 43.9375 28.39125 42.875 27.5625 C26.43522671 15.28358968 9.83392167 7.15947731 -10.76953125 4.4921875 C-11.50558594 4.32976562 -12.24164063 4.16734375 -13 4 C-13.33 3.34 -13.66 2.68 -14 2 C-12.04235617 1.80543295 -10.08384679 1.61955753 -8.125 1.4375 C-6.48917969 1.28087891 -6.48917969 1.28087891 -4.8203125 1.12109375 C-2 1 -2 1 0 2 C0 1.34 0 0.68 0 0 Z " fill="#CE558E" transform="translate(451,210)"/>
<path d="M0 0 C1.9375 0.3125 1.9375 0.3125 4 1 C4.33 1.99 4.66 2.98 5 4 C4.67 4.66 4.34 5.32 4 6 C4.46723783 8.20150613 4.46723783 8.20150613 5.3125 10.5625 C5.57675781 11.36816406 5.84101562 12.17382812 6.11328125 13.00390625 C6.82569808 15.17778546 6.82569808 15.17778546 9 16 C9 65.83 9 115.66 9 167 C8.67 167 8.34 167 8 167 C7.99853344 166.32360379 7.99706688 165.64720758 7.99555588 164.95031452 C7.95829656 148.39427978 7.89903251 131.83847893 7.81609726 115.2826128 C7.7765038 107.27588942 7.74401239 99.26926152 7.72900391 91.26245117 C7.71588412 84.2732928 7.68866145 77.28434627 7.64538693 70.29530734 C7.62300076 66.60407012 7.60707528 62.91309188 7.60811615 59.22178078 C7.72938096 32.45217382 7.72938096 32.45217382 1.36566162 6.62336731 C0 3 0 3 0 0 Z " fill="#D44778" transform="translate(519,271)"/>
<path d="M0 0 C0.33 0.66 0.66 1.32 1 2 C11.23 2 21.46 2 32 2 C32 1.34 32 0.68 32 0 C37.61 0 43.22 0 49 0 C49 0.33 49 0.66 49 1 C76.06 1.33 103.12 1.66 131 2 C131 2.33 131 2.66 131 3 C59.72 3.495 59.72 3.495 -13 4 C-13 3.67 -13 3.34 -13 3 C-11.02 3 -9.04 3 -7 3 C-7 2.34 -7 1.68 -7 1 C-5.824375 1.309375 -5.824375 1.309375 -4.625 1.625 C-3.75875 1.74875 -2.8925 1.8725 -2 2 C-1.34 1.34 -0.68 0.68 0 0 Z " fill="#D74978" transform="translate(303,210)"/>
<path d="M0 0 C0.83265381 0.00523682 1.66530762 0.01047363 2.52319336 0.01586914 C3.42231445 0.0190918 4.32143555 0.02231445 5.24780273 0.02563477 C6.66609375 0.03820312 6.66609375 0.03820312 8.11303711 0.05102539 C9.06243164 0.05553711 10.01182617 0.06004883 10.98999023 0.06469727 C13.34356776 0.07652429 15.69702188 0.09300514 18.05053711 0.11352539 C18.05053711 0.77352539 18.05053711 1.43352539 18.05053711 2.11352539 C22.50553711 1.61852539 22.50553711 1.61852539 27.05053711 1.11352539 C27.05053711 0.78352539 27.05053711 0.45352539 27.05053711 0.11352539 C29.69053711 0.11352539 32.33053711 0.11352539 35.05053711 0.11352539 C35.05053711 0.77352539 35.05053711 1.43352539 35.05053711 2.11352539 C36.24291992 2.09032227 37.43530273 2.06711914 38.66381836 2.04321289 C40.23021835 2.02445361 41.79662511 2.00625358 43.36303711 1.98852539 C44.1487207 1.97176758 44.9344043 1.95500977 45.74389648 1.93774414 C46.5012207 1.93129883 47.25854492 1.92485352 48.03881836 1.91821289 C48.73531494 1.90773926 49.43181152 1.89726562 50.14941406 1.88647461 C52.05053711 2.11352539 52.05053711 2.11352539 55.05053711 4.11352539 C47.43341455 4.18953116 39.81638964 4.24210669 32.19897461 4.27832031 C29.60714056 4.29341554 27.01533208 4.31389363 24.42358398 4.33984375 C20.70021252 4.37619366 16.97717851 4.39324459 13.25366211 4.40649414 C12.09312317 4.421978 10.93258423 4.43746185 9.73687744 4.45341492 C8.65605896 4.45364151 7.57524048 4.4538681 6.46166992 4.45410156 C5.51124817 4.4607634 4.56082642 4.46742523 3.581604 4.47428894 C0.62794724 4.05329189 -0.74593977 3.07427412 -2.94946289 1.11352539 C-1.94946289 0.11352539 -1.94946289 0.11352539 0 0 Z " fill="#F5764A" transform="translate(300.949462890625,497.886474609375)"/>
<path d="M0 0 C0.66 0 1.32 0 2 0 C2 0.66 2 1.32 2 2 C2.556875 1.835 3.11375 1.67 3.6875 1.5 C6.18691249 0.95958649 8.45045662 0.92917935 11 1 C11.20625 1.804375 11.4125 2.60875 11.625 3.4375 C12.305625 4.7059375 12.305625 4.7059375 13 6 C15.94363898 6.67117848 15.94363898 6.67117848 19 7 C20.69140625 8.5234375 20.69140625 8.5234375 22 10 C21.34515625 9.81824219 20.6903125 9.63648438 20.015625 9.44921875 C18.06397508 8.91168805 16.10921184 8.38539973 14.15234375 7.8671875 C12.23410617 7.33949389 10.32562007 6.77143153 8.44140625 6.1328125 C-7.92449882 1.02606649 -25.28096006 3.04433891 -41 9 C-42.65799225 9.37409972 -44.3226907 9.72518661 -46 10 C-46 9.01 -46 8.02 -46 7 C-44.35 7 -42.7 7 -41 7 C-41 6.34 -41 5.68 -41 5 C-38.69 5 -36.38 5 -34 5 C-34 4.34 -34 3.68 -34 3 C-26.55373988 1.16188816 -19.58493789 0.77624412 -11.9375 0.9375 C-9.88418172 0.97174311 -7.83079025 1.0019265 -5.77734375 1.02734375 C-4.43530884 1.05429321 -4.43530884 1.05429321 -3.06616211 1.08178711 C-1.00817242 1.23436748 -1.00817242 1.23436748 0 0 Z " fill="#DF657C" transform="translate(382,288)"/>
<path d="M0 0 C3.79491883 3.00405529 7.17030691 6.33139829 10.41796875 9.9140625 C9.75796875 10.2440625 9.09796875 10.5740625 8.41796875 10.9140625 C7.67546875 10.1303125 6.93296875 9.3465625 6.16796875 8.5390625 C3.84772461 6.32428401 2.31042871 5.11094248 -0.58203125 3.9140625 C-1.24203125 3.5840625 -1.90203125 3.2540625 -2.58203125 2.9140625 C-2.58203125 1.9240625 -2.58203125 0.9340625 -2.58203125 -0.0859375 C-3.90203125 -0.0859375 -5.22203125 -0.0859375 -6.58203125 -0.0859375 C-7.07703125 -1.0759375 -7.07703125 -1.0759375 -7.58203125 -2.0859375 C-9.24524607 -2.43608799 -10.91237674 -2.76790807 -12.58203125 -3.0859375 C-13.57203125 -3.7459375 -14.56203125 -4.4059375 -15.58203125 -5.0859375 C-17.78243451 -5.55764292 -17.78243451 -5.55764292 -20.22265625 -5.75390625 C-21.58197266 -5.88635742 -21.58197266 -5.88635742 -22.96875 -6.02148438 C-23.91363281 -6.10462891 -24.85851562 -6.18777344 -25.83203125 -6.2734375 C-26.76144531 -6.36818359 -27.69085938 -6.46292969 -28.6484375 -6.56054688 C-36.34600542 -7.27368789 -43.01819435 -6.32274067 -50.46875 -4.390625 C-52.80079584 -4.05439658 -54.35529366 -4.37217511 -56.58203125 -5.0859375 C-54.68749904 -5.73557773 -52.79134476 -6.38048865 -50.89453125 -7.0234375 C-49.83878906 -7.38308594 -48.78304688 -7.74273437 -47.6953125 -8.11328125 C-31.22762503 -13.2581422 -14.05214497 -9.65154889 0 0 Z " fill="#E76982" transform="translate(402.58203125,325.0859375)"/>
<path d="M0 0 C1.24546405 2.49092811 0.7767578 3.41080733 0 6 C0.66 6.33 1.32 6.66 2 7 C2 7.66 2 8.32 2 9 C1.34 9 0.68 9 0 9 C0 8.34 0 7.68 0 7 C-0.66 7 -1.32 7 -2 7 C-2.33 7.99 -2.66 8.98 -3 10 C-3.99 10 -4.98 10 -6 10 C-6 12.31 -6 14.62 -6 17 C-10.75 18 -10.75 18 -13 18 C-13.391875 19.134375 -13.78375 20.26875 -14.1875 21.4375 C-16 25 -16 25 -18.6875 25.9375 C-19.450625 25.958125 -20.21375 25.97875 -21 26 C-21.66 25.01 -22.32 24.02 -23 23 C-22.01 22.34 -21.02 21.68 -20 21 C-19.67 20.01 -19.34 19.02 -19 18 C-17.43359375 16.4921875 -17.43359375 16.4921875 -15.4375 14.875 C-11.46972155 11.52807897 -8.11631742 7.87135987 -4.76171875 3.91796875 C-3 2 -3 2 0 0 Z " fill="#F15C74" transform="translate(510,486)"/>
<path d="M0 0 C7.15778308 5.83226769 10.50718298 16.17039237 12 25 C12.92590671 35.99672769 11.2242352 45.84346927 7 56 C6.67 56 6.34 56 6 56 C6.49815179 51.01848214 7.12951178 46.11810117 8 41.1875 C9.04194341 35.14578338 9.58808302 29.11371523 10 23 C9.34 23 8.68 23 8 23 C7.67386719 22.04738281 7.34773438 21.09476562 7.01171875 20.11328125 C6.57060497 18.84625231 6.12918229 17.57933087 5.6875 16.3125 C5.25824219 15.07113281 4.82898438 13.82976562 4.38671875 12.55078125 C3.14049542 9.04726196 3.14049542 9.04726196 1.33203125 6.29296875 C0 4 0 4 0 0 Z " fill="#DA6C83" transform="translate(413,337)"/>
<path d="M0 0 C2.31 0.66 4.62 1.32 7 2 C6.67 2.66 6.34 3.32 6 4 C7.2375 5.175625 7.2375 5.175625 8.5 6.375 C11 9 11 9 11 11 C12.65 10.67 14.3 10.34 16 10 C16 12.33333333 16 14.66666667 16 17 C18.31 17 20.62 17 23 17 C25.10954744 20.37685019 25.09148822 22.33825995 24.25 26.1875 C24.06953125 27.06792969 23.8890625 27.94835937 23.703125 28.85546875 C23.47109375 29.56316406 23.2390625 30.27085937 23 31 C22.34 31.33 21.68 31.66 21 32 C20.50371094 30.94941406 20.00742187 29.89882813 19.49609375 28.81640625 C15.67777459 20.8721443 11.85836888 13.6640653 6 7 C5.41605469 6.3090625 4.83210938 5.618125 4.23046875 4.90625 C2.83457759 3.25864076 1.41954034 1.62727795 0 0 Z " fill="#ED587E" transform="translate(423,311)"/>
<path d="M0 0 C8.13961543 7.49055127 12.99668843 20.10155272 14 31 C14.18044602 41.00864857 13.61634996 51.0133862 13 61 C12.67 61 12.34 61 12 61 C11.96241577 59.65421875 11.96241577 59.65421875 11.92407227 58.28125 C11.82833687 54.91900569 11.72914371 51.55689888 11.62768555 48.19482422 C11.58465509 46.74597085 11.54296107 45.2970771 11.50268555 43.84814453 C11.21104975 32.88785478 11.21104975 32.88785478 10 22 C9.34 22 8.68 22 8 22 C7.9175 20.72125 7.835 19.4425 7.75 18.125 C7.53440074 15.92867742 7.53440074 15.92867742 7 14 C5.06669397 12.90833725 5.06669397 12.90833725 3 12 C1.75 8.375 1.75 8.375 1 5 C-0.32 4.67 -1.64 4.34 -3 4 C-2.01 2.68 -1.02 1.36 0 0 Z " fill="#CF5985" transform="translate(488,267)"/>
<path d="M0 0 C0.33 0 0.66 0 1 0 C1 24.42 1 48.84 1 74 C0.34 73.67 -0.32 73.34 -1 73 C-0.99476318 72.31373535 -0.98952637 71.6274707 -0.98413086 70.92041016 C-0.96339044 67.82194936 -0.95034924 64.72350314 -0.9375 61.625 C-0.92912109 60.54476562 -0.92074219 59.46453125 -0.91210938 58.3515625 C-0.90888672 57.3203125 -0.90566406 56.2890625 -0.90234375 55.2265625 C-0.89710693 54.27346191 -0.89187012 53.32036133 -0.88647461 52.33837891 C-0.84357401 49.97675594 -0.84357401 49.97675594 -2 48 C-1.67 47.01 -1.34 46.02 -1 45 C-0.92648746 42.12033004 -0.90832305 39.26551751 -0.9375 36.38671875 C-0.94128662 35.53954788 -0.94507324 34.69237701 -0.94897461 33.8195343 C-0.96530864 30.19644257 -0.99336179 26.57346376 -1.02050781 22.95043945 C-1.03865069 20.30420458 -1.05071184 17.65798837 -1.0625 15.01171875 C-1.07079834 14.19902023 -1.07909668 13.38632172 -1.08764648 12.54899597 C-1.10609137 8.24563088 -0.86304766 4.23921198 0 0 Z " fill="#EC6C60" transform="translate(212,294)"/>
<path d="M0 0 C0.99 0.66 1.98 1.32 3 2 C2.48050781 2.268125 1.96101563 2.53625 1.42578125 2.8125 C-4.00091258 5.86188064 -7.87413586 9.00624415 -10 15 C-10.92154043 21.74319491 -10.57834151 27.0879575 -7 33 C-7.33 33.66 -7.66 34.32 -8 35 C-8.86625 33.5459375 -8.86625 33.5459375 -9.75 32.0625 C-11.64792862 28.90530708 -11.64792862 28.90530708 -14.25 28.125 C-14.8275 28.08375 -15.405 28.0425 -16 28 C-15.690625 27.360625 -15.38125 26.72125 -15.0625 26.0625 C-14.11937689 23.34408632 -13.82259975 21.44441109 -13.625 18.625 C-13.20346458 13.87676141 -11.60713539 10.95275365 -9 7 C-8.34 7 -7.68 7 -7 7 C-6.95875 6.401875 -6.9175 5.80375 -6.875 5.1875 C-6 3 -6 3 -2.9375 1.25 C-1.968125 0.8375 -0.99875 0.425 0 0 Z " fill="#D25C80" transform="translate(448,261)"/>
<path d="M0 0 C0.33 0.66 0.66 1.32 1 2 C11.23 2 21.46 2 32 2 C32 1.34 32 0.68 32 0 C37.61 0 43.22 0 49 0 C48.67 0.66 48.34 1.32 48 2 C45.18579102 2.39428711 45.18579102 2.39428711 41.44140625 2.58984375 C40.43612633 2.64506447 40.43612633 2.64506447 39.41053772 2.70140076 C37.2740859 2.81385375 35.13749892 2.90975504 33 3 C32.33152039 3.02862122 31.66304077 3.05724243 30.9743042 3.08673096 C26.97207926 3.25170892 22.96940792 3.38536599 18.96557617 3.50268555 C16.9346023 3.56258546 14.90384162 3.62769237 12.87304688 3.69335938 C4.24507448 3.96209374 -4.3681887 4.05305924 -13 4 C-13 3.67 -13 3.34 -13 3 C-11.02 3 -9.04 3 -7 3 C-7 2.34 -7 1.68 -7 1 C-5.824375 1.309375 -5.824375 1.309375 -4.625 1.625 C-3.75875 1.74875 -2.8925 1.8725 -2 2 C-1.34 1.34 -0.68 0.68 0 0 Z " fill="#E9527C" transform="translate(303,210)"/>
<path d="M0 0 C0.33 0.99 0.66 1.98 1 3 C1.66 3 2.32 3 3 3 C3.28875 3.969375 3.5775 4.93875 3.875 5.9375 C4.64214682 9.10664203 4.64214682 9.10664203 7 10 C7.66 10.33 8.32 10.66 9 11 C10.66194453 11.35613097 12.328451 11.69208308 14 12 C14.59732819 14.76264289 15 17.16032769 15 20 C15.3062434 21.33981486 15.63451555 22.67511887 16 24 C8.08429961 17.86129358 2.48185566 10.42149179 -1 1 C-0.67 0.67 -0.34 0.34 0 0 Z " fill="#F16F63" transform="translate(320,389)"/>
<path d="M0 0 C0.66 0 1.32 0 2 0 C1.53442333 2.39439431 1.06183198 4.7664125 0.4375 7.125 C-0.11361481 9.1660264 -0.11361481 9.1660264 0 12 C-0.45375 12.721875 -0.9075 13.44375 -1.375 14.1875 C-3.43210295 17.74787048 -4.11666361 20.99101177 -5 25 C-5.66 25 -6.32 25 -7 25 C-7.268125 25.598125 -7.53625 26.19625 -7.8125 26.8125 C-8.98493467 28.97224808 -10.19369282 30.35790256 -12 32 C-11.45307121 27.11459553 -9.95371373 23.62111168 -7.625 19.3125 C-4.82591198 13.99366412 -2.86598307 8.89998989 -1.5078125 3.01171875 C-1 1 -1 1 0 0 Z " fill="#EB5D7F" transform="translate(524,452)"/>
<path d="M0 0 C0.99 0.33 1.98 0.66 3 1 C3.984375 3.21484375 3.984375 3.21484375 4.75 5.9375 C5.14445312 7.28134766 5.14445312 7.28134766 5.546875 8.65234375 C6 11 6 11 5 13 C5.309375 13.928125 5.61875 14.85625 5.9375 15.8125 C8.12979978 22.89646188 8.15284084 31.26893503 5 38 C4.67 38 4.34 38 4 38 C3.98541748 37.36610352 3.97083496 36.73220703 3.95581055 36.07910156 C3.7176692 20.39736154 3.7176692 20.39736154 0.62109375 5.109375 C0 3 0 3 0 0 Z " fill="#E45D7D" transform="translate(445,343)"/>
<path d="M0 0 C14.57268272 -0.41157158 26.71631237 0.39170085 40 7 C37 9 37 9 34.8125 8.625 C34.214375 8.41875 33.61625 8.2125 33 8 C33 7.34 33 6.68 33 6 C32.01 6.66 31.02 7.32 30 8 C29.01 8 28.02 8 27 8 C27 7.34 27 6.68 27 6 C26.34 6 25.68 6 25 6 C25 5.01 25 4.02 25 3 C23.5459375 3.0309375 23.5459375 3.0309375 22.0625 3.0625 C19 3 19 3 18 2 C16.65984779 1.84417697 15.31241097 1.74955858 13.96484375 1.68359375 C13.15595703 1.64169922 12.34707031 1.59980469 11.51367188 1.55664062 C10.66353516 1.51732422 9.81339844 1.47800781 8.9375 1.4375 C8.08349609 1.39431641 7.22949219 1.35113281 6.34960938 1.30664062 C4.23327963 1.20023298 2.11666187 1.09958269 0 1 C0 0.67 0 0.34 0 0 Z " fill="#D35384" transform="translate(423,238)"/>
<path d="M0 0 C-1.375 2 -1.375 2 -3 4 C-3.66 4 -4.32 4 -5 4 C-5.20625 4.721875 -5.4125 5.44375 -5.625 6.1875 C-7.42469884 9.86870218 -9.69729204 11.62205027 -13 14 C-15.375 14.8125 -15.375 14.8125 -17 15 C-18 13 -18 13 -17.5 11 C-15.24930507 7.99907343 -12.55359122 7.78968694 -9 7 C-9.33 5.02 -9.66 3.04 -10 1 C-8.71073008 0.63720544 -7.41846728 0.28503302 -6.125 -0.0625 C-5.40570313 -0.25972656 -4.68640625 -0.45695313 -3.9453125 -0.66015625 C-2 -1 -2 -1 0 0 Z " fill="#F55976" transform="translate(258,225)"/>
<path d="M0 0 C0.66 0 1.32 0 2 0 C2.03738281 1.28132813 2.07476562 2.56265625 2.11328125 3.8828125 C2.44530216 13.1920292 3.0527874 21.98484474 5.28125 31.0546875 C6.00562858 34.02306494 6.53148997 36.98171422 7 40 C6.34 40 5.68 40 5 40 C4.67 37.36 4.34 34.72 4 32 C3.34 32 2.68 32 2 32 C0.06084339 21.23075524 -0.22256188 10.90553195 0 0 Z " fill="#DD7972" transform="translate(289,360)"/>
<path d="M0 0 C1.9375 0.3125 1.9375 0.3125 4 1 C4.33 1.99 4.66 2.98 5 4 C4.67 4.66 4.34 5.32 4 6 C4.46723783 8.20150613 4.46723783 8.20150613 5.3125 10.5625 C5.57675781 11.36816406 5.84101562 12.17382812 6.11328125 13.00390625 C6.82569808 15.17778546 6.82569808 15.17778546 9 16 C9 21.61 9 27.22 9 33 C8.34 32.67 7.68 32.34 7 32 C6.45336914 30.08569336 6.45336914 30.08569336 6.03515625 27.58984375 C5.87466797 26.68169922 5.71417969 25.77355469 5.54882812 24.83789062 C5.38833984 23.88076172 5.22785156 22.92363281 5.0625 21.9375 C3.93859409 15.26344147 2.466106 9.30227088 0 3 C0 2.01 0 1.02 0 0 Z " fill="#CF528B" transform="translate(519,271)"/>
<path d="M0 0 C2 1.375 2 1.375 4 3 C4 3.66 4 4.32 4 5 C4.99 5 5.98 5 7 5 C7.33 6.98 7.66 8.96 8 11 C10.97 11.495 10.97 11.495 14 12 C13.773125 12.845625 13.54625 13.69125 13.3125 14.5625 C12.90856636 19.00577003 14.02697599 21.05395199 16 25 C15.34 25.33 14.68 25.66 14 26 C13.64808594 25.32195312 13.29617188 24.64390625 12.93359375 23.9453125 C9.80557511 18.04862984 6.45004161 12.61175471 2.41796875 7.2890625 C0.89127797 4.8244873 0.3882153 2.85363456 0 0 Z " fill="#CE548E" transform="translate(504,245)"/>
<path d="M0 0 C0.66 0.99 1.32 1.98 2 3 C1.67 3.66 1.34 4.32 1 5 C2.98 5 4.96 5 7 5 C7 5.66 7 6.32 7 7 C14.59 7 22.18 7 30 7 C30 7.33 30 7.66 30 8 C18.76202635 10.574061 7.66497944 9.20689822 -3 5 C-5.3984375 3.36328125 -5.3984375 3.36328125 -7 2 C-4.69 1.34 -2.38 0.68 0 0 Z " fill="#E37C7F" transform="translate(351,416)"/>
<path d="M0 0 C0 0.99 0 1.98 0 3 C-1.98 3.33 -3.96 3.66 -6 4 C-6 4.33 -6 4.66 -6 5 C-10.76940459 5.75165602 -15.42122918 6.17145324 -20.24609375 6.31640625 C-21.23005882 6.3475779 -21.23005882 6.3475779 -22.23390198 6.37937927 C-24.30167546 6.44405938 -26.36956101 6.50337466 -28.4375 6.5625 C-29.85092242 6.60576307 -31.26433407 6.64937965 -32.67773438 6.69335938 C-36.11837471 6.79965516 -39.55913692 6.90114472 -43 7 C-43 6.34 -43 5.68 -43 5 C-43.99 4.67 -44.98 4.34 -46 4 C-42.39661564 2.79887188 -40.74121457 3.37154344 -37 4 C-24.09047824 4.84531516 -12.2598283 4.27757249 0 0 Z " fill="#E37770" transform="translate(397,444)"/>
<path d="M0 0 C1.13732426 3.40401948 0.83989957 5.77456664 0.0625 9.25 C-0.13214844 10.14203125 -0.32679688 11.0340625 -0.52734375 11.953125 C-0.68332031 12.62859375 -0.83929688 13.3040625 -1 14 C-1.66 14 -2.32 14 -3 14 C-2.85967508 17.18776711 -2.71173356 20.3751385 -2.5625 23.5625 C-2.52318359 24.45775391 -2.48386719 25.35300781 -2.44335938 26.27539062 C-2.20667217 31.2458219 -1.80178328 36.08823519 -1 41 C-5.32686091 36.67313909 -5.20398014 29.27549661 -5.4375 23.4375 C-5.35537491 15.08811542 -2.82278861 7.76266868 0 0 Z " fill="#EA7478" transform="translate(320,346)"/>
<path d="M0 0 C12.01027653 1.25107047 21.78161742 6.80450537 29.6875 16 C30.8321875 17.485 30.8321875 17.485 32 19 C27.35523767 18.21275215 25.95294691 15.54353629 23 12 C20.83468832 11.05563651 20.83468832 11.05563651 19 11 C19 10.01 19 9.02 19 8 C17.68 8 16.36 8 15 8 C14.67 7.34 14.34 6.68 14 6 C12.33678518 5.64984951 10.66965451 5.31802943 9 5 C8.01 4.34 7.02 3.68 6 3 C4.0103005 2.60986284 2.00980131 2.26797351 0 2 C0 1.34 0 0.68 0 0 Z " fill="#DC667F" transform="translate(381,317)"/>
<path d="M0 0 C0 0.66 0 1.32 0 2 C0.556875 1.835 1.11375 1.67 1.6875 1.5 C4.18691249 0.95958649 6.45045662 0.92917935 9 1 C9.20625 1.804375 9.4125 2.60875 9.625 3.4375 C10.305625 4.7059375 10.305625 4.7059375 11 6 C13.94363898 6.67117848 13.94363898 6.67117848 17 7 C18.69140625 8.5234375 18.69140625 8.5234375 20 10 C19.34515625 9.81824219 18.6903125 9.63648438 18.015625 9.44921875 C5.08962598 5.88425359 5.08962598 5.88425359 -8 3 C-8 2.67 -8 2.34 -8 2 C-2.25 0 -2.25 0 0 0 Z " fill="#E65D7E" transform="translate(384,288)"/>
<path d="M0 0 C0.99 0.66 1.98 1.32 3 2 C-19.68932039 14 -19.68932039 14 -28 14 C-28 13.34 -28 12.68 -28 12 C-26.23050388 11.49528803 -24.45934777 10.99639315 -22.6875 10.5 C-21.70136719 10.2215625 -20.71523438 9.943125 -19.69921875 9.65625 C-17 9 -17 9 -14 9 C-13.67 8.01 -13.34 7.02 -13 6 C-10.93359375 5.05078125 -10.93359375 5.05078125 -8.4375 4.3125 C-7.61121094 4.06113281 -6.78492188 3.80976563 -5.93359375 3.55078125 C-5.29550781 3.36902344 -4.65742188 3.18726563 -4 3 C-4 2.34 -4 1.68 -4 1 C-2.68 1.33 -1.36 1.66 0 2 C0 1.34 0 0.68 0 0 Z " fill="#FEE6E2" transform="translate(412,434)"/>
<path d="M0 0 C0.33 0 0.66 0 1 0 C1.31174429 6.48889959 1.48149172 11.29035358 -2 17 C-2.36784131 18.3242287 -2.71202981 19.65613912 -3 21 C-3.33 21.66 -3.66 22.32 -4 23 C-4.66 23 -5.32 23 -6 23 C-6.33 24.65 -6.66 26.3 -7 28 C-7.66 28 -8.32 28 -9 28 C-9 28.66 -9 29.32 -9 30 C-9.66 29.67 -10.32 29.34 -11 29 C-10.60167969 28.21496094 -10.20335937 27.42992187 -9.79296875 26.62109375 C-8.17951377 23.42166357 -6.58461271 20.21380532 -5 17 C-4.67128906 16.33871094 -4.34257812 15.67742187 -4.00390625 14.99609375 C-1.7696715 10.19191022 -0.88662803 5.18416625 0 0 Z " fill="#EB6781" transform="translate(448,382)"/>
<path d="M0 0 C1.11343946 3.27721585 0.94819257 4.88800957 -0.51171875 8.00390625 C-0.85783203 8.74447266 -1.20394531 9.48503906 -1.56054688 10.24804688 C-1.93244141 11.01181641 -2.30433594 11.77558594 -2.6875 12.5625 C-3.04005859 13.33013672 -3.39261719 14.09777344 -3.75585938 14.88867188 C-5.62859219 18.8155906 -7.06643783 21.78903616 -11 24 C-10.34580901 18.93001981 -8.1453591 14.58009223 -6 10 C-5.01 10 -4.02 10 -3 10 C-3.20625 9.401875 -3.4125 8.80375 -3.625 8.1875 C-4 6 -4 6 -2 3 C-1.34 3 -0.68 3 0 3 C0 2.01 0 1.02 0 0 Z " fill="#D66276" transform="translate(498,450)"/>
<path d="M0 0 C0.66 0 1.32 0 2 0 C2.33 0.99 2.66 1.98 3 3 C2.67 3.66 2.34 4.32 2 5 C2.66 5.33 3.32 5.66 4 6 C4.45375 6.66 4.9075 7.32 5.375 8 C7.21321578 10.26241942 8.17338531 10.61012211 11 11 C10.67 12.32 10.34 13.64 10 15 C9.20335937 14.38511719 8.40671875 13.77023437 7.5859375 13.13671875 C6.51582327 12.32005263 5.44549953 11.50366099 4.375 10.6875 C3.33085937 9.88699219 2.28671875 9.08648437 1.2109375 8.26171875 C-1.77083904 6.16141629 -4.6976508 4.53217103 -8 3 C-7.01 2.34 -6.02 1.68 -5 1 C-5 1.66 -5 2.32 -5 3 C-3.02463255 2.65213292 -3.02463255 2.65213292 -1 2 C-0.67 1.34 -0.34 0.68 0 0 Z " fill="#ED5A81" transform="translate(412,296)"/>
<path d="M0 0 C0.66 0.33 1.32 0.66 2 1 C1.48050781 1.66644531 0.96101563 2.33289063 0.42578125 3.01953125 C-4.38350665 9.37561415 -8.02565833 15.60704499 -11 23 C-11.33 23 -11.66 23 -12 23 C-11.67 20.36 -11.34 17.72 -11 15 C-10.34 15 -9.68 15 -9 15 C-8.67 12.36 -8.34 9.72 -8 7 C-7.01 7 -6.02 7 -5 7 C-5 6.34 -5 5.68 -5 5 C-4.34 5 -3.68 5 -3 5 C-3 3.68 -3 2.36 -3 1 C-2.01 0.67 -1.02 0.34 0 0 Z " fill="#DE7178" transform="translate(308,318)"/>
<path d="M0 0 C0.6319296 6.00333124 -1.62455877 10.63404795 -4 16 C-4.66 16 -5.32 16 -6 16 C-6.33 16.66 -6.66 17.32 -7 18 C-7.125 15.125 -7.125 15.125 -7 12 C-6.34 11.34 -5.68 10.68 -5 10 C-5.04125 8.865625 -5.0825 7.73125 -5.125 6.5625 C-5 3 -5 3 -3.0625 1.0625 C-1 0 -1 0 0 0 Z " fill="#EB6771" transform="translate(221,268)"/>
<path d="M0 0 C4.33333333 4.33333333 8.66666667 8.66666667 13 13 C10.10765685 13.82638376 8.11257569 14 5 14 C4.67 12.02 4.34 10.04 4 8 C3.01 7.67 2.02 7.34 1 7 C1 5.68 1 4.36 1 3 C0.34 3 -0.32 3 -1 3 C-0.67 2.01 -0.34 1.02 0 0 Z " fill="#EB567F" transform="translate(435,289)"/>
<path d="M0 0 C-0.33 0.99 -0.66 1.98 -1 3 C-2.0725 2.979375 -3.145 2.95875 -4.25 2.9375 C-7.70648004 2.83620474 -7.70648004 2.83620474 -9.78125 3.5 C-12.95329278 4.21482654 -16.00421945 4.09255352 -19.25 4.0625 C-20.51328125 4.05347656 -21.7765625 4.04445313 -23.078125 4.03515625 C-24.04234375 4.02355469 -25.0065625 4.01195312 -26 4 C-26 3.67 -26 3.34 -26 3 C-8.14350797 -0.44419134 -8.14350797 -0.44419134 0 0 Z " fill="#E67076" transform="translate(462,523)"/>
<path d="M0 0 C0 0.66 0 1.32 0 2 C-0.61875 2.0825 -1.2375 2.165 -1.875 2.25 C-4.15354435 2.79278299 -4.15354435 2.79278299 -5.0625 4.875 C-5.371875 5.57625 -5.68125 6.2775 -6 7 C-8.03675892 9.89434162 -9.06874836 10.01281749 -12.6875 10.6875 C-13.780625 10.790625 -14.87375 10.89375 -16 11 C-12.20918993 6.84233734 -5.90642573 0 0 0 Z " fill="#EA6580" transform="translate(278,245)"/>
<path d="M0 0 C4.79567724 -0.36889825 8.41279462 0.63412015 12.8515625 2.24609375 C14.88669732 2.96024106 16.90804352 3.48346754 19 4 C20.6744239 4.6469365 22.34302621 5.30959426 24 6 C19.88476273 7.67181514 16.10347775 6.32047246 12 5.25 C11.2884375 5.07984375 10.576875 4.9096875 9.84375 4.734375 C5.96380391 3.74991107 2.9866167 2.70662139 0 0 Z " fill="#EA835A" transform="translate(278,495)"/>
<path d="M0 0 C0.33 0 0.66 0 1 0 C1.02707139 2.24993359 1.04642829 4.49996095 1.0625 6.75 C1.07410156 8.00296875 1.08570313 9.2559375 1.09765625 10.546875 C1.01801268 13.36307155 0.71821501 15.33837967 0 18 C-0.2198223 20.24707241 -0.40483987 22.49771238 -0.5625 24.75 C-0.64628906 25.92046875 -0.73007812 27.0909375 -0.81640625 28.296875 C-0.87699219 29.18890625 -0.93757813 30.0809375 -1 31 C-1.33 31 -1.66 31 -2 31 C-2.05905417 27.70841135 -2.09394375 24.41696244 -2.125 21.125 C-2.14175781 20.2071875 -2.15851563 19.289375 -2.17578125 18.34375 C-2.22051277 11.99187394 -1.48851563 6.17389964 0 0 Z " fill="#FDE9E2" transform="translate(293,349)"/>
<path d="M0 0 C1.32 0.66 2.64 1.32 4 2 C4 8.27 4 14.54 4 21 C3.34 21.33 2.68 21.66 2 22 C1.92652344 20.35451172 1.92652344 20.35451172 1.8515625 18.67578125 C1.77649409 17.22133075 1.70094803 15.76690484 1.625 14.3125 C1.5940625 13.59126953 1.563125 12.87003906 1.53125 12.12695312 C1.30664413 8.02789606 0.82259091 4.75631541 -1 1 C-0.67 0.67 -0.34 0.34 0 0 Z " fill="#E2568D" transform="translate(476,270)"/>
<path d="M0 0 C0.87140625 0.53109375 1.7428125 1.0621875 2.640625 1.609375 C10.20102123 6.12470055 17.4564577 9.62157797 26 12 C26 12.33 26 12.66 26 13 C18.57459839 12.64070637 13.4111957 10.70545379 7 7 C6.36320312 6.63261719 5.72640625 6.26523437 5.0703125 5.88671875 C2.15830484 4.08238865 1.11387417 3.34162252 0 0 Z " fill="#FEE9D7" transform="translate(266,488)"/>
<path d="M0 0 C0.33 0.66 0.66 1.32 1 2 C0.04504326 3.69287785 -0.9590934 5.35857037 -2 7 C-2.33 7.99 -2.66 8.98 -3 10 C-3.99 10.66 -4.98 11.32 -6 12 C-7.36592604 14.14514987 -7.36592604 14.14514987 -8.5625 16.5625 C-10.7868676 20.8934338 -10.7868676 20.8934338 -13 22 C-11.71687876 17.68693405 -10.07895544 14.20416086 -7.625 10.4375 C-7.03976563 9.52871094 -6.45453125 8.61992187 -5.8515625 7.68359375 C-4.01218661 5.01766287 -2.05458146 2.50260693 0 0 Z " fill="#FCEFEF" transform="translate(235,249)"/>
<path d="M0 0 C1.32 0.33 2.64 0.66 4 1 C3.44271087 4.34373475 2.64826111 7.03312999 1 10 C0.34 10 -0.32 10 -1 10 C-1.33 10.66 -1.66 11.32 -2 12 C-2.33 10.35 -2.66 8.7 -3 7 C-2.34 6.67 -1.68 6.34 -1 6 C-0.34227572 2.97065509 -0.34227572 2.97065509 0 0 Z " fill="#F75E6B" transform="translate(227,248)"/>
<path d="M0 0 C-0.33 0.66 -0.66 1.32 -1 2 C-3.28515625 2.6328125 -3.28515625 2.6328125 -6.0625 3.125 C-6.98160156 3.29257813 -7.90070313 3.46015625 -8.84765625 3.6328125 C-9.91306641 3.81457031 -9.91306641 3.81457031 -11 4 C-11.33 4.99 -11.66 5.98 -12 7 C-14.97 6.67 -17.94 6.34 -21 6 C-18.69412696 3.69412696 -17.22901367 3.31712405 -14.125 2.4375 C-13.26132812 2.18871094 -12.39765625 1.93992188 -11.5078125 1.68359375 C-10.68023437 1.45800781 -9.85265625 1.23242188 -9 1 C-8.29101562 0.80664062 -7.58203125 0.61328125 -6.8515625 0.4140625 C-4.53851741 -0.10320075 -2.36186585 -0.06560738 0 0 Z " fill="#E3627E" transform="translate(299,239)"/>
<path d="M0 0 C0.33 0 0.66 0 1 0 C2.24909181 7.04033567 1.8420966 12.3767881 -1 19 C-1.66 19.66 -2.32 20.32 -3 21 C-2.29411026 13.94110263 -1.21786614 6.98795036 0 0 Z " fill="#E26478" transform="translate(422,372)"/>
<path d="M0 0 C0.66 0 1.32 0 2 0 C1.85691406 0.83789062 1.71382812 1.67578125 1.56640625 2.5390625 C0.97619612 6.1454499 0.44952065 9.75672076 -0.0625 13.375 C-0.23910156 14.62023437 -0.41570312 15.86546875 -0.59765625 17.1484375 C-0.73042969 18.08945312 -0.86320313 19.03046875 -1 20 C-1.33 20 -1.66 20 -2 20 C-2.19430855 17.3753399 -2.38073238 14.75053235 -2.5625 12.125 C-2.61857422 11.37863281 -2.67464844 10.63226563 -2.73242188 9.86328125 C-3.11328125 4.2265625 -3.11328125 4.2265625 -2 2 C-1.34 2 -0.68 2 0 2 C0 1.34 0 0.68 0 0 Z " fill="#DC7373" transform="translate(215,284)"/>
<path d="M0 0 C0.66 0.33 1.32 0.66 2 1 C-0.40178631 6.4040192 -3.58975171 10.43725081 -9 13 C-9.66 12.67 -10.32 12.34 -11 12 C-10.54109375 11.55269531 -10.0821875 11.10539062 -9.609375 10.64453125 C-6.16447701 7.25029352 -2.92744915 3.86423288 0 0 Z " fill="#FCEBE7" transform="translate(490,471)"/>
<path d="M0 0 C0.33 0 0.66 0 1 0 C1.64622041 2.41656376 2.29199004 4.83324646 2.9375 7.25 C3.11990234 7.93191406 3.30230469 8.61382812 3.49023438 9.31640625 C4.35053121 12.53860894 5.20683134 15.76053223 6 19 C4 19 4 19 2.4375 17.9375 C-1.14518924 13.10865799 -0.1181092 5.78735096 0 0 Z " fill="#FDD9D3" transform="translate(315,376)"/>
<path d="M0 0 C0.61875 0.165 1.2375 0.33 1.875 0.5 C8.25091623 1.5201466 14.68040803 1.33044041 21 0 C19.70122766 2.59754469 18.68140714 2.94675431 16 4 C10.98456598 4.57554161 6.44591518 4.65207939 1.8125 2.5625 C1.214375 2.046875 0.61625 1.53125 0 1 C0 0.67 0 0.34 0 0 Z " fill="#D35E81" transform="translate(447,301)"/>
<path d="M0 0 C2.46150147 2.3482422 4.54330077 4.87400759 6.625 7.5625 C7.23601562 8.34753906 7.84703125 9.13257813 8.4765625 9.94140625 C10 12 10 12 11 14 C8.3125 14.125 8.3125 14.125 5 13 C2.24662794 9.01579237 0 4.89181065 0 0 Z " fill="#E47A6B" transform="translate(301,410)"/>
<path d="M0 0 C0.99 0.33 1.98 0.66 3 1 C3 1.66 3 2.32 3 3 C0.69 3.33 -1.62 3.66 -4 4 C-4.33 4.99 -4.66 5.98 -5 7 C-7.4375 8.75 -7.4375 8.75 -10 10 C-10.66 9.67 -11.32 9.34 -12 9 C-10.37680325 7.68527053 -8.751385 6.37328338 -7.125 5.0625 C-6.22007812 4.33160156 -5.31515625 3.60070312 -4.3828125 2.84765625 C-2 1 -2 1 0 0 Z " fill="#EB687D" transform="translate(344,321)"/>
<path d="M0 0 C-3.88672813 3.18005028 -7.89952133 6.10554447 -12 9 C-12.33 7.68 -12.66 6.36 -13 5 C-11.68 5 -10.36 5 -9 5 C-8.67 4.01 -8.34 3.02 -8 2 C-7.34 2 -6.68 2 -6 2 C-6 1.34 -6 0.68 -6 0 C-3.50907189 -1.24546405 -2.58919267 -0.7767578 0 0 Z " fill="#E3697A" transform="translate(329,302)"/>
<path d="M0 0 C-5.14285714 5.57142857 -5.14285714 5.57142857 -9 6 C-9.33 5.34 -9.66 4.68 -10 4 C-7.80817267 -1.56386937 -5.49102172 -1.07433034 0 0 Z " fill="#EA6076" transform="translate(250,234)"/>
<path d="M0 0 C0.33 0.99 0.66 1.98 1 3 C-4.18610439 5.20409437 -7.59710348 5.09889421 -13 4 C-13.33 3.34 -13.66 2.68 -14 2 C-12.04235617 1.80543295 -10.08384679 1.61955753 -8.125 1.4375 C-6.48917969 1.28087891 -6.48917969 1.28087891 -4.8203125 1.12109375 C-2 1 -2 1 0 2 C0 1.34 0 0.68 0 0 Z " fill="#DA568D" transform="translate(451,210)"/>
<path d="M0 0 C1.67110042 2.96178773 2.32682752 5.37071192 2.625 8.75 C2.69976562 9.54921875 2.77453125 10.3484375 2.8515625 11.171875 C2.90054688 11.77515625 2.94953125 12.3784375 3 13 C3.66 13 4.32 13 5 13 C5 15.64 5 18.28 5 21 C2.95684198 17.93526297 2.25739685 15.73045705 1.375 12.1875 C1.11460937 11.17042969 0.85421875 10.15335937 0.5859375 9.10546875 C-0.001462 5.99225142 -0.10390886 3.15977385 0 0 Z " fill="#EE855A" transform="translate(238,436)"/>
<path d="M0 0 C2.31 0.66 4.62 1.32 7 2 C6.67 2.66 6.34 3.32 6 4 C6.78375 4.721875 7.5675 5.44375 8.375 6.1875 C10.84412438 8.83299041 11.93260278 10.60373611 13 14 C11.88085919 12.88085919 10.76206063 11.76137493 9.64453125 10.640625 C8.39693967 9.39599682 7.14323731 8.15749029 5.88671875 6.921875 C5.16097656 6.20515625 4.43523437 5.4884375 3.6875 4.75 C2.99011719 4.06421875 2.29273438 3.3784375 1.57421875 2.671875 C0 1 0 1 0 0 Z " fill="#E56486" transform="translate(423,311)"/>
<path d="M0 0 C3.81753091 0.54536156 5.45033977 2.19537375 8 5 C8.66 5.66 9.32 6.32 10 7 C11.33333333 8.33333333 12.66666667 9.66666667 14 11 C13.67 11.66 13.34 12.32 13 13 C8.18876004 8.96476648 3.86757281 4.95532767 0 0 Z " fill="#EF865B" transform="translate(254,476)"/>
<path d="M0 0 C0.66 0 1.32 0 2 0 C2.33 0.99 2.66 1.98 3 3 C3.66 3.33 4.32 3.66 5 4 C4.67 4.99 4.34 5.98 4 7 C4.66 7 5.32 7 6 7 C6.33 7.99 6.66 8.98 7 10 C5.68 10 4.36 10 3 10 C2.896875 9.401875 2.79375 8.80375 2.6875 8.1875 C1.91123545 5.71756736 0.92911079 4.67748765 -1 3 C-0.67 2.01 -0.34 1.02 0 0 Z " fill="#FA7C46" transform="translate(250,465)"/>
<path d="M0 0 C2.94982021 1.14186589 4.88437775 2.67281553 7 5 C6.67 5.99 6.34 6.98 6 8 C5.4225 7.525625 4.845 7.05125 4.25 6.5625 C2.07417916 5.0515133 0.57397552 4.45963849 -2 4 C-2 3.01 -2 2.02 -2 1 C-1.34 0.67 -0.68 0.34 0 0 Z " fill="#F7597B" transform="translate(402,328)"/>
<path d="M0 0 C1.33332095 2.6666419 0.67102033 4.16680303 0 7 C-0.66 7 -1.32 7 -2 7 C-2.33 7.66 -2.66 8.32 -3 9 C-3.99 9.33 -4.98 9.66 -6 10 C-6 10.66 -6 11.32 -6 12 C-6.66 11.67 -7.32 11.34 -8 11 C-5.36 7.37 -2.72 3.74 0 0 Z " fill="#ED6776" transform="translate(255,262)"/>
<path d="M0 0 C4.455 0.99 4.455 0.99 9 2 C8 4 8 4 5.0625 5.1875 C2 6 2 6 0 5 C0 3.33333333 0 1.66666667 0 0 Z " fill="#FB823F" transform="translate(272,521)"/>
<path d="M0 0 C0 1.66666667 0 3.33333333 0 5 C-3.46153846 8 -3.46153846 8 -6 8 C-6 8.66 -6 9.32 -6 10 C-7.65 10.66 -9.3 11.32 -11 12 C-7.49102731 7.81576108 -3.91939465 3.80411834 0 0 Z " fill="#FBF0F0" transform="translate(319,309)"/>
<path d="M0 0 C0.33 0.66 0.66 1.32 1 2 C1.66 2.33 2.32 2.66 3 3 C1.75 5 1.75 5 0 7 C-4 7 -4 7 -7 6 C-6.67 5.34 -6.34 4.68 -6 4 C-4.68 4 -3.36 4 -2 4 C-1.34 2.68 -0.68 1.36 0 0 Z " fill="#EB5085" transform="translate(474,297)"/>
<path d="M0 0 C0.66 0 1.32 0 2 0 C1.43518386 3.95371299 0.28003407 6.71675094 -2 10 C-2.99 10.495 -2.99 10.495 -4 11 C-3.39301257 6.87248551 -1.96189209 3.6678852 0 0 Z " fill="#E3657C" transform="translate(491,463)"/>
<path d="M0 0 C1.44037669 0.93307421 2.87718985 1.87165077 4.3125 2.8125 C5.11300781 3.33457031 5.91351563 3.85664063 6.73828125 4.39453125 C8.7237402 5.80389849 10.3491852 7.22096657 12 9 C10.35 9 8.7 9 7 9 C6.67 8.34 6.34 7.68 6 7 C5.01 6.34 4.02 5.68 3 5 C2.01 4.34 1.02 3.68 0 3 C0 2.01 0 1.02 0 0 Z " fill="#E47A6B" transform="translate(318,430)"/>
<path d="M0 0 C-2.36778958 1.18389479 -4.73818717 2.35432984 -7.125 3.5 C-10.03577476 4.83589037 -10.03577476 4.83589037 -12 7 C-13.32 6.34 -14.64 5.68 -16 5 C-11.1356474 1.75709826 -5.95319301 -0.55811184 0 0 Z " fill="#FCE8E8" transform="translate(354,293)"/>
<path d="M0 0 C2.97 0.495 2.97 0.495 6 1 C5.34 1.66 4.68 2.32 4 3 C3.67 3 3.34 3 3 3 C3 4.65 3 6.3 3 8 C1.68 7.67 0.36 7.34 -1 7 C-0.67 4.69 -0.34 2.38 0 0 Z " fill="#EF6070" transform="translate(233,241)"/>
<path d="M0 0 C0.33 0.66 0.66 1.32 1 2 C-2.32307692 7.78461538 -2.32307692 7.78461538 -5.75 8.875 C-6.4925 8.91625 -7.235 8.9575 -8 9 C-7.04270084 7.87411986 -6.08412105 6.7493285 -5.125 5.625 C-4.59132812 4.99851563 -4.05765625 4.37203125 -3.5078125 3.7265625 C-2.38567993 2.44163349 -1.20628025 1.20628025 0 0 Z " fill="#FBE5E4" transform="translate(245,238)"/>
<path d="M0 0 C5.29441695 -0.50423019 7.81413519 0.81076967 12 4 C10 5 10 5 7.6171875 4.22265625 C6.71226562 3.83980469 5.80734375 3.45695312 4.875 3.0625 C3.50988281 2.49208984 3.50988281 2.49208984 2.1171875 1.91015625 C1.41851562 1.60980469 0.71984375 1.30945313 0 1 C0 0.67 0 0.34 0 0 Z " fill="#F1906C" transform="translate(278,495)"/>
<path d="M0 0 C0.99 0 1.98 0 3 0 C3 2.31 3 4.62 3 7 C2.01 7.495 2.01 7.495 1 8 C0.34 7.67 -0.32 7.34 -1 7 C-1.04254356 5.00045254 -1.04080783 2.99958364 -1 1 C-0.67 0.67 -0.34 0.34 0 0 Z " fill="#FA7D44" transform="translate(244,451)"/>
<path d="M0 0 C0.66 0.99 1.32 1.98 2 3 C1.67 3.99 1.34 4.98 1 6 C-4.75 4.25 -4.75 4.25 -7 2 C-4.69 1.34 -2.38 0.68 0 0 Z " fill="#F27873" transform="translate(351,416)"/>
<path d="M0 0 C0.721875 0.103125 1.44375 0.20625 2.1875 0.3125 C1.6875 2.25 1.6875 2.25 0.1875 4.3125 C-2.50908452 5.00040422 -5.0142019 5.13196464 -7.8125 5.3125 C-3.50480769 0.38942308 -3.50480769 0.38942308 0 0 Z " fill="#EF6665" transform="translate(387.8125,417.6875)"/>
<path d="M0 0 C0.66 0.33 1.32 0.66 2 1 C2.36995516 5.56278027 2.36995516 5.56278027 0.625 7.625 C0.08875 8.07875 -0.4475 8.5325 -1 9 C-1.66 9.99 -2.32 10.98 -3 12 C-2.49202991 7.6822542 -1.80317221 3.96697886 0 0 Z " fill="#FCE2E1" transform="translate(220,274)"/>
<path d="M0 0 C0.66 0.33 1.32 0.66 2 1 C1.01 2.485 1.01 2.485 0 4 C-0.33 4.66 -0.66 5.32 -1 6 C-3.32156597 6.40729228 -5.6568787 6.74438677 -8 7 C-5.42215154 4.35247996 -3.08351902 2.05567935 0 0 Z " fill="#FCEFEB" transform="translate(254,231)"/>
<path d="M0 0 C2 3 2 3 1.625 5.1875 C1.41875 5.785625 1.2125 6.38375 1 7 C-0.65 6.67 -2.3 6.34 -4 6 C-2.25 1.125 -2.25 1.125 0 0 Z " fill="#FB8440" transform="translate(221,472)"/>
<path d="M0 0 C1.98 0 3.96 0 6 0 C6 0.66 6 1.32 6 2 C8.97 2.495 8.97 2.495 12 3 C12 3.33 12 3.66 12 4 C11.071875 3.979375 10.14375 3.95875 9.1875 3.9375 C5.97713989 3.84230396 5.97713989 3.84230396 3 5 C3.33 3.68 3.66 2.36 4 1 C2.68 0.67 1.36 0.34 0 0 Z " fill="#F96E5D" transform="translate(333,443)"/>
<path d="M0 0 C2.96052484 3.36423277 3.92289822 6.69159287 5 11 C4.34 11 3.68 11 3 11 C3 10.34 3 9.68 3 9 C2.34 9 1.68 9 1 9 C0.67 6.03 0.34 3.06 0 0 Z " fill="#FBD8F0" transform="translate(516,267)"/>
<path d="M0 0 C0.33 0.99 0.66 1.98 1 3 C0.34 3 -0.32 3 -1 3 C-1 3.99 -1 4.98 -1 6 C-2.98 6.33 -4.96 6.66 -7 7 C-4.66666667 4.66666667 -2.33333333 2.33333333 0 0 Z " fill="#E76D7A" transform="translate(422,429)"/>
<path d="M0 0 C0.99 0.33 1.98 0.66 3 1 C3.33 3.31 3.66 5.62 4 8 C2.68 7.67 1.36 7.34 0 7 C-0.93423645 3.98968256 -1.04449911 3.13349732 0 0 Z " fill="#F7577B" transform="translate(410,335)"/>
<path d="M0 0 C2.64465038 3.1254959 3.84414715 6.08788267 5 10 C1.125 8.25 1.125 8.25 0 6 C-0.039992 4.00039988 -0.04346799 1.99952758 0 0 Z " fill="#E3776A" transform="translate(296,400)"/>
<path d="M0 0 C0.66 0 1.32 0 2 0 C1.38545304 3.99455527 -0.70646737 6.74466336 -3 10 C-3.33 8.68 -3.66 7.36 -4 6 C-3.34 6 -2.68 6 -2 6 C-1.34 4.02 -0.68 2.04 0 0 Z " fill="#DB6D78" transform="translate(417,393)"/>
<path d="M0 0 C2.86724686 0.57344937 3.8614515 0.8614515 6 3 C8.06874034 3.6425235 8.06874034 3.6425235 10 4 C9.67 5.32 9.34 6.64 9 8 C7.49712782 6.85793642 5.99776716 5.71125043 4.5 4.5625 C3.6646875 3.92441406 2.829375 3.28632813 1.96875 2.62890625 C1.3190625 2.09136719 0.669375 1.55382812 0 1 C0 0.67 0 0.34 0 0 Z " fill="#E56685" transform="translate(413,303)"/>
<path d="M0 0 C0.66 0 1.32 0 2 0 C1.33989524 2.84550012 0.48275034 5.52325999 -0.5625 8.25 C-0.83191406 8.95640625 -1.10132813 9.6628125 -1.37890625 10.390625 C-1.68634766 11.18726563 -1.68634766 11.18726563 -2 12 C-3.07174763 8.34811918 -2.76411467 5.73567172 -2 2 C-1.34 2 -0.68 2 0 2 C0 1.34 0 0.68 0 0 Z " fill="#FEE6E5" transform="translate(243,276)"/>
<path d="M0 0 C0.33 0.66 0.66 1.32 1 2 C-1.85276137 4.93200474 -4.65079784 7.64315404 -8 10 C-6.5682479 4.98886765 -4.01554307 3.05530451 0 0 Z " fill="#F9E2EA" transform="translate(447,264)"/>
<path d="M0 0 C1.5 1.3125 1.5 1.3125 3 3 C3 3.99 3 4.98 3 6 C1.35 6 -0.3 6 -2 6 C-1.125 1.125 -1.125 1.125 0 0 Z " fill="#F0577A" transform="translate(266,217)"/>
<path d="M0 0 C0.66 0.33 1.32 0.66 2 1 C1.21516341 2.48280196 0.42190666 3.9611498 -0.375 5.4375 C-0.81585938 6.26121094 -1.25671875 7.08492188 -1.7109375 7.93359375 C-3 10 -3 10 -5 11 C-3.77472971 6.94718288 -2.30119506 3.55639236 0 0 Z " fill="#FBE4E4" transform="translate(227,260)"/>
<path d="M0 0 C0.66 0.33 1.32 0.66 2 1 C-0.31 3.31 -2.62 5.62 -5 8 C-5.33 7.01 -5.66 6.02 -6 5 C-5.34 5 -4.68 5 -4 5 C-3.71125 4.360625 -3.4225 3.72125 -3.125 3.0625 C-2 1 -2 1 0 0 Z " fill="#FDD6DF" transform="translate(498,496)"/>
<path d="M0 0 C3.25543229 0.34879632 4.01873107 1.02133261 6.25 3.5625 C6.8275 4.366875 7.405 5.17125 8 6 C7.67 6.66 7.34 7.32 7 8 C5.83035398 6.8572081 4.66435444 5.71068285 3.5 4.5625 C2.8503125 3.92441406 2.200625 3.28632813 1.53125 2.62890625 C0 1 0 1 0 0 Z " fill="#FDE7DA" transform="translate(240,496)"/>
<path d="M0 0 C2.64465038 3.1254959 3.84414715 6.08788267 5 10 C4.34 10 3.68 10 3 10 C0.96564469 6.27034861 0 4.33094958 0 0 Z " fill="#E4916D" transform="translate(219,464)"/>
<path d="M0 0 C0.33 0 0.66 0 1 0 C1.1953125 6.0546875 1.1953125 6.0546875 1 8 C0.34 8.66 -0.32 9.32 -1 10 C-1.9765625 3.9453125 -1.9765625 3.9453125 -2 2 C-1.34 1.34 -0.68 0.68 0 0 Z " fill="#F55E82" transform="translate(527,440)"/>
<path d="M0 0 C0.33 0 0.66 0 1 0 C1.05410687 1.77049689 1.09284119 3.54146849 1.125 5.3125 C1.14820313 6.29863281 1.17140625 7.28476562 1.1953125 8.30078125 C1 11 1 11 -1 14 C-2.13732426 10.59598052 -1.83989957 8.22543336 -1.0625 4.75 C-0.86785156 3.85796875 -0.67320312 2.9659375 -0.47265625 2.046875 C-0.31667969 1.37140625 -0.16070312 0.6959375 0 0 Z " fill="#E75C7A" transform="translate(448,382)"/>
<path d="M0 0 C3.37503669 1.1858237 5.64722731 2.27573689 8 5 C7.01 5.33 6.02 5.66 5 6 C1.96811304 4.21653709 1.13474948 3.40424844 0 0 Z " fill="#FA577D" transform="translate(393,322)"/>
<path d="M0 0 C0.99 0.33 1.98 0.66 3 1 C1.35 2.98 -0.3 4.96 -2 7 C-2.66 6.67 -3.32 6.34 -4 6 C-4 5.34 -4 4.68 -4 4 C-3.34 4 -2.68 4 -2 4 C-2 3.34 -2 2.68 -2 2 C-1.34 1.34 -0.68 0.68 0 0 Z " fill="#E67583" transform="translate(314,310)"/>
<path d="M0 0 C2.61047801 1.305239 2.68066423 2.35826574 3.625 5.0625 C3.88539063 5.79597656 4.14578125 6.52945312 4.4140625 7.28515625 C4.60742188 7.85105469 4.80078125 8.41695313 5 9 C4.01 9.495 4.01 9.495 3 10 C1.68 7.03 0.36 4.06 -1 1 C-0.67 0.67 -0.34 0.34 0 0 Z " fill="#CC508B" transform="translate(515,261)"/>
<path d="M0 0 C3.08089673 2.77280706 4.68775452 5.06326356 6 9 C3 8 3 8 1.3125 5.0625 C0 2 0 2 0 0 Z " fill="#FDE3F7" transform="translate(507,253)"/>
<path d="M0 0 C0 0.66 0 1.32 0 2 C-3.3125 3.625 -3.3125 3.625 -7 5 C-7.99 4.34 -8.98 3.68 -10 3 C-8.70990357 2.49596232 -7.41786211 1.99690074 -6.125 1.5 C-5.04605469 1.08234375 -5.04605469 1.08234375 -3.9453125 0.65625 C-2 0 -2 0 0 0 Z " fill="#FBE3E0" transform="translate(458,497)"/>
<path d="M0 0 C4 6 4 6 4 10 C3.34 10 2.68 10 2 10 C-0.09350689 6.5980513 -0.17942163 3.94727588 0 0 Z " fill="#FEE0C8" transform="translate(241,454)"/>
<path d="M0 0 C0.99 0 1.98 0 3 0 C1.8141763 3.37503669 0.72426311 5.64722731 -2 8 C-1.125 2.25 -1.125 2.25 0 0 Z " fill="#FDDFDE" transform="translate(434,411)"/>
<path d="M0 0 C-1.28965176 1.37562854 -2.62689293 2.70766393 -4 4 C-4.66 4 -5.32 4 -6 4 C-6 2.68 -6 1.36 -6 0 C-3.50907189 -1.24546405 -2.58919267 -0.7767578 0 0 Z " fill="#E26C7A" transform="translate(409,409)"/>
<path d="M0 0 C0.33 1.32 0.66 2.64 1 4 C0.01 4.66 -0.98 5.32 -2 6 C-2.33 6.99 -2.66 7.98 -3 9 C-3.66 9 -4.32 9 -5 9 C-3.7508258 5.54074837 -2.32472205 2.85306797 0 0 Z " fill="#EB7079" transform="translate(326,337)"/>
<path d="M0 0 C1.65 0 3.3 0 5 0 C5.33 1.32 5.66 2.64 6 4 C5.01 4.33 4.02 4.66 3 5 C1.5 3.625 1.5 3.625 0 2 C0 1.34 0 0.68 0 0 Z " fill="#C7518E" transform="translate(498,240)"/>
<path d="M0 0 C-0.33 0.99 -0.66 1.98 -1 3 C-2.98 3 -4.96 3 -7 3 C-7.33 2.34 -7.66 1.68 -8 1 C-5.07175348 0.02391783 -3.04386724 -0.08226668 0 0 Z " fill="#F5676D" transform="translate(462,523)"/>
<path d="M0 0 C0.99 0.33 1.98 0.66 3 1 C3 1.66 3 2.32 3 3 C4.32 3.33 5.64 3.66 7 4 C7 4.66 7 5.32 7 6 C3.62496331 4.8141763 1.35277269 3.72426311 -1 1 C-0.67 0.67 -0.34 0.34 0 0 Z " fill="#FEEEE2" transform="translate(255,507)"/>
<path d="M0 0 C1.32 1.32 2.64 2.64 4 4 C0.86650268 5.04449911 0.01031744 4.93423645 -3 4 C-2.01 2.68 -1.02 1.36 0 0 Z " fill="#CC618C" transform="translate(488,267)"/>
<path d="M0 0 C0.99 0.33 1.98 0.66 3 1 C-0.465 3.97 -0.465 3.97 -4 7 C-4 6.01 -4 5.02 -4 4 C-3.34 4 -2.68 4 -2 4 C-1.34 2.68 -0.68 1.36 0 0 Z " fill="#FFD8DE" transform="translate(259,255)"/>
</svg>
