<?xml version="1.0" standalone="no"?>
<!DOCTYPE svg PUBLIC "-//W3C//DTD SVG 20010904//EN"
 "http://www.w3.org/TR/2001/REC-SVG-20010904/DTD/svg10.dtd">
<svg version="1.0" xmlns="http://www.w3.org/2000/svg"
 width="264.000000pt" height="149.000000pt" viewBox="0 0 264.000000 149.000000"
 preserveAspectRatio="xMidYMid meet">

<g transform="translate(0.000000,149.000000) scale(0.100000,-0.100000)"
fill="#000000" stroke="none">
<path d="M1082 968 c-18 -18 -17 -422 2 -437 9 -8 78 -11 227 -9 l214 3 3 219
c2 169 -1 221 -10 228 -22 13 -422 10 -436 -4z m125 -74 c12 -19 11 -24 -5
-45 -19 -22 -20 -22 -46 -6 -30 20 -33 39 -10 62 21 20 43 16 61 -11z m3 -199
l0 -115 -35 0 -35 0 0 115 0 115 35 0 35 0 0 -115z m110 105 c0 -7 6 -7 19 0
33 17 86 12 107 -11 16 -17 19 -37 19 -113 l0 -91 -35 0 -35 0 -5 80 c-4 69
-8 80 -24 83 -31 6 -46 -26 -46 -100 l0 -68 -35 0 -35 0 0 115 0 115 35 0 c19
0 35 -5 35 -10z"/>
</g>
</svg>
