<?xml version="1.0" encoding="UTF-8"?>
<svg version="1.1" xmlns="http://www.w3.org/2000/svg" width="740" height="740">
<path d="M0 0 C244.2 0 488.4 0 740 0 C740 244.2 740 488.4 740 740 C495.8 740 251.6 740 0 740 C0 495.8 0 251.6 0 0 Z " fill="#000000" transform="translate(0,0)"/>
<path d="M0 0 C15.76832207 -0.25730818 31.53607481 -0.45110254 47.30597687 -0.56993389 C54.62885335 -0.62658443 61.95042332 -0.70376911 69.27246094 -0.82983398 C75.65674017 -0.93970061 82.04007319 -1.01049146 88.42527151 -1.03497344 C91.80479214 -1.04928006 95.18160677 -1.08272571 98.56025696 -1.16303062 C102.33932278 -1.24301335 106.11280091 -1.25387661 109.89257812 -1.2487793 C111.56061996 -1.30810135 111.56061996 -1.30810135 113.26235962 -1.36862183 C118.07749346 -1.29844407 120.86543635 -1.10799696 124.39781189 2.34166527 C126.46407378 5.1484461 128.25205753 7.9866784 130 11 C131.19873296 12.81886366 132.40590397 14.63222147 133.625 16.4375 C134.28628906 17.43910156 134.94757813 18.44070312 135.62890625 19.47265625 C138.53145349 23.82584309 141.5526845 28.0956454 144.5625 32.375 C151.54189472 42.30573008 158.38515234 52.32557988 165.20800781 62.36425781 C172.70364019 73.38916887 180.25020221 84.37647663 187.875 95.3125 C194.48523347 104.79336358 201.01655146 114.32550452 207.515625 123.8828125 C210.6814243 128.53747781 213.86787674 133.1775871 217.0625 137.8125 C220.75795108 143.17580359 224.41843598 148.55964959 228 154 C231.81488941 152.48601922 233.63076629 150.27002932 236.125 147.0625 C239.29541471 143.07609331 242.54377896 139.2415477 246 135.5 C250.11378909 131.0301488 253.97087297 126.40955107 257.78515625 121.68359375 C259.95632827 119.05291443 262.20241357 116.52057576 264.5 114 C267.61458668 110.58260628 270.5918662 107.0947765 273.5 103.5 C277.11149134 99.03579543 280.88660694 94.76997886 284.75390625 90.52734375 C287.06187598 87.93037607 289.25555863 85.26595987 291.4375 82.5625 C295.29708603 77.79003797 299.37199991 73.26890891 303.52734375 68.75390625 C306.74709519 65.16792716 309.75905176 61.43298508 312.78515625 57.68359375 C315.66598507 54.19306571 318.70934403 50.86725932 321.7578125 47.5234375 C324.04515904 44.94917642 326.21548271 42.30710511 328.375 39.625 C331.63758595 35.5880481 335.02842933 31.73389345 338.5625 27.9375 C342.5979267 23.60171074 346.36446358 19.12761182 350.01171875 14.4609375 C352.93076605 10.8479713 356.06636721 7.44434978 359.21484375 4.03125 C361.04445938 2.1231855 361.04445938 2.1231855 362 0 C373.88 0 385.76 0 398 0 C396.06717555 3.86564889 393.86580497 6.49012282 390.9375 9.5625 C386.56424392 14.23895899 382.45006505 19.04902965 378.4296875 24.03515625 C373.97011377 29.47698335 369.31704245 34.75334924 364.69384766 40.05615234 C361.93653325 43.22042696 359.18663502 46.39111895 356.4375 49.5625 C355.89971924 50.18278076 355.36193848 50.80306152 354.80786133 51.44213867 C349.67735399 57.36421442 344.57767046 63.31244913 339.48388672 69.26611328 C336.4937937 72.75996663 333.50024355 76.25086021 330.50634766 79.74145508 C327.96529167 82.70463683 325.42724353 85.67030706 322.89453125 88.640625 C318.42459061 93.87776795 313.9470481 99.09432474 309.3125 104.1875 C305.55484695 108.32831267 302.02234062 112.61643593 298.50390625 116.9609375 C294.53498696 121.77812815 290.42249947 126.46869795 286.32421875 131.17578125 C283.19707968 134.76767945 280.09481234 138.38024351 277 142 C272.3173961 147.47372523 267.60606976 152.92184893 262.8840332 158.36157227 C257.22686908 164.88275208 251.61078865 171.43891561 246 178 C247.59820587 182.84134879 250.34941072 186.546795 253.3125 190.625 C254.40228212 192.14624755 255.49077771 193.66841739 256.578125 195.19140625 C257.42407227 196.37500732 257.42407227 196.37500732 258.28710938 197.58251953 C261.09341001 201.54317929 263.8290977 205.55132923 266.5625 209.5625 C267.10688721 210.36059082 267.65127441 211.15868164 268.2121582 211.98095703 C269.29284814 213.56545271 270.37333687 215.15008564 271.45361328 216.73486328 C273.79368553 220.16258515 276.14639289 223.58156372 278.5 227 C281.34430545 231.13192325 284.18416417 235.26674639 287.01171875 239.41015625 C292.96696782 248.13563312 298.95941732 256.8333277 305 265.5 C311.56208385 274.91489148 318.06208632 284.37022853 324.53125 293.84912109 C331.21955222 303.64365942 337.9679078 313.39519397 344.75 323.125 C351.40726407 332.67820558 357.98661574 342.2822011 364.53515625 351.91015625 C368.89631778 358.32193808 373.29090487 364.71051677 377.68945312 371.09667969 C379.96155061 374.39646956 382.23057913 377.69836901 384.5 381 C385.41665286 382.33334282 386.33331951 383.66667617 387.25 385 C389.08333333 387.66666667 390.91666667 390.33333333 392.75 393 C393.20455566 393.66104736 393.65911133 394.32209473 394.12744141 395.00317383 C395.03644063 396.3256044 395.94497569 397.64835415 396.85302734 398.97143555 C399.25813426 402.47445085 401.6729972 405.9702296 404.1015625 409.45703125 C404.60751953 410.18599609 405.11347656 410.91496094 405.63476562 411.66601562 C406.60707903 413.06650374 407.58221285 414.46503916 408.56054688 415.86132812 C410.42776501 418.55596936 411.95738921 420.87216763 413 424 C397.28378272 424.35127869 381.56863412 424.61532844 365.84945965 424.77718258 C358.54958642 424.85435347 351.25215947 424.95943404 343.95385742 425.1315918 C337.58821913 425.28167688 331.22435242 425.37800133 324.85699397 425.41132742 C321.48807395 425.43079774 318.1242187 425.47610041 314.75693321 425.58595085 C294.29030863 426.18006598 294.29030863 426.18006598 288.82378578 422.55810165 C285.30556538 419.15177805 283.00172157 415.29829292 280.93047333 410.89318275 C279.47789511 407.93770198 277.60264137 405.36164747 275.70703125 402.671875 C274.4051562 400.70035361 273.10690605 398.7264332 271.8125 396.75 C267.30600273 389.88466817 262.71312194 383.12810472 257.8293457 376.52416992 C255.93797234 373.91441292 254.14673346 371.25463097 252.375 368.5625 C248.78158196 363.11963197 245.06271211 357.77337911 241.3125 352.4375 C234.45865251 342.68087888 227.71493692 332.85254668 221 323 C218.89722604 319.91571385 216.79316949 316.83231013 214.6875 313.75 C213.89351807 312.58754761 213.89351807 312.58754761 213.08349609 311.40161133 C209.45117507 306.09387546 205.7819262 300.81291993 202.09887695 295.5402832 C193.89933278 283.80179177 185.88641968 271.95098778 178 260 C174.44904223 261.65995353 172.4145061 263.47528905 169.8125 266.4375 C169.02359375 267.3346875 168.2346875 268.231875 167.421875 269.15625 C164.32449207 272.79317705 161.32021628 276.50056735 158.31640625 280.21484375 C155.16025948 284.00967115 151.81442676 287.6150819 148.47265625 291.24609375 C145.25290481 294.83207284 142.24094824 298.56701492 139.21484375 302.31640625 C137.04367173 304.94708557 134.79758643 307.47942424 132.5 310 C129.38541332 313.41739372 126.4081338 316.9052235 123.5 320.5 C119.88967558 324.96276213 116.11572071 329.22719533 112.25 333.46875 C109.92137947 336.0884481 107.70437053 338.7751531 105.5 341.5 C101.17879093 346.8375213 96.61822945 351.9199476 92 357 C84.23975158 365.70406242 76.7154935 374.6273804 69.375 383.6875 C65.74757666 388.14404867 61.97062913 392.43258259 58.10546875 396.68359375 C55.01933293 400.07891572 52.00206148 403.53030972 49 407 C48.525625 407.5480127 48.05125 408.09602539 47.5625 408.66064453 C45.93524171 410.54266047 44.31098313 412.4272269 42.6875 414.3125 C42.15922607 414.92383789 41.63095215 415.53517578 41.08666992 416.16503906 C40.33800659 417.03660645 40.33800659 417.03660645 39.57421875 417.92578125 C38.90265747 418.70562378 38.90265747 418.70562378 38.2175293 419.5012207 C37.0550669 420.93221261 36.02267472 422.46598792 35 424 C32.23371085 424.2667616 29.69380369 424.34804189 26.9296875 424.29296875 C26.13345978 424.28872391 25.33723206 424.28447906 24.51687622 424.28010559 C21.96924271 424.26328834 19.42239511 424.22563179 16.875 424.1875 C15.14975099 424.17245705 13.42448961 424.15876796 11.69921875 424.14648438 C7.46584218 424.11337501 3.23305441 424.06157285 -1 424 C2.68577921 418.98653463 6.48028417 414.13316356 10.5625 409.4375 C11.33013672 408.54804687 11.33013672 408.54804687 12.11328125 407.640625 C13.7393878 405.75797252 15.36929831 403.87867296 17 402 C18.08210563 400.75136654 19.16413701 399.50266873 20.24609375 398.25390625 C21.87710921 396.37196533 23.50842623 394.49028978 25.140625 392.609375 C30.2909526 386.67236252 35.40655549 380.70598773 40.51611328 374.73388672 C43.00895524 371.82105954 45.50462766 368.91065939 48 366 C49.0000134 364.83334482 50.00001341 363.66667816 51 362.5 C53 360.16666667 55 357.83333333 57 355.5 C57.4952417 354.92217773 57.9904834 354.34435547 58.50073242 353.74902344 C59.4981301 352.58547402 60.49568803 351.42206196 61.4934082 350.25878906 C64.03457301 347.29554935 66.57268199 344.3297803 69.10546875 341.359375 C70.13259691 340.15606594 71.15993847 338.95293901 72.1875 337.75 C72.68515869 337.16726318 73.18281738 336.58452637 73.69555664 335.98413086 C76.7194734 332.45614463 79.80275154 328.99307737 82.9375 325.5625 C85.48286094 322.77274752 87.79999858 319.98804712 89.9375 316.875 C90.618125 315.92625 91.29875 314.9775 92 314 C92.66 314 93.32 314 94 314 C94.27602051 313.40558105 94.55204102 312.81116211 94.83642578 312.19873047 C95.93794952 310.11725276 97.06503249 308.57789176 98.6171875 306.8203125 C99.13539063 306.22863281 99.65359375 305.63695312 100.1875 305.02734375 C100.744375 304.39957031 101.30125 303.77179688 101.875 303.125 C103.06028318 301.77377718 104.24517044 300.42220697 105.4296875 299.0703125 C106.0287793 298.3887207 106.62787109 297.70712891 107.24511719 297.00488281 C109.85436306 294.02392467 112.42789086 291.01299293 115 288 C119.14802525 283.15035964 123.31674745 278.31928085 127.5 273.5 C132.19531764 268.0899499 136.87571333 262.66762159 141.52880859 257.22119141 C144.12178423 254.18641759 146.72560842 251.16205791 149.34765625 248.15234375 C149.89607178 247.52013916 150.4444873 246.88793457 151.00952148 246.23657227 C152.05908268 245.02712627 153.11180952 243.8204176 154.16821289 242.61694336 C156.55429144 239.86021183 158.45688486 237.2945198 160 234 C159.26136719 232.9584375 158.52273438 231.916875 157.76171875 230.84375 C151.22056628 221.60655995 144.75212932 212.32396063 138.35888672 202.98388672 C136.07719279 199.65276116 133.78821244 196.32664957 131.5 193 C130.5832988 191.66669041 129.66663212 190.33335708 128.75 189 C128.29625 188.34 127.8425 187.68 127.375 187 C123.25 181 123.25 181 121.8762207 179.00170898 C120.95556784 177.66262209 120.03483159 176.32359253 119.11401367 174.98461914 C116.88266308 171.73976998 114.65256052 168.49408198 112.42578125 165.24609375 C107.0238104 157.37101723 101.58433386 149.52293039 96.125 141.6875 C89.5264635 132.21543238 82.98890393 122.70356741 76.48193359 113.16845703 C74.16204925 109.77385856 71.83124997 106.38679872 69.5 103 C65.49032158 97.17326446 61.49247599 91.33853506 57.5 85.5 C49.12768698 73.26024851 40.72997412 61.04050914 32.25 48.875 C26.17433656 40.15724048 20.15544197 31.40283568 14.1862793 22.61181641 C11.50150641 18.65938488 8.81109827 14.71308795 6.0625 10.8046875 C5.63316162 10.19318848 5.20382324 9.58168945 4.76147461 8.95166016 C3.65886433 7.38676632 2.55041152 5.82599337 1.44140625 4.265625 C0 2 0 2 0 0 Z " fill="#FBFBFB" transform="translate(164,158)"/>
<path d="M0 0 C7.48733415 -0.38245817 14.97213208 -0.64382008 22.46704102 -0.82397461 C25.01194326 -0.89910505 27.55620438 -1.00125298 30.09887695 -1.1315918 C50.59066178 -2.15517752 50.59066178 -2.15517752 56.17462158 1.37466431 C59.73129848 4.7759889 61.99964048 8.74317677 64.10018921 13.15737915 C65.28354347 15.58063664 66.79184732 17.68153136 68.390625 19.84765625 C69.3463845 21.25081329 70.29951898 22.65576202 71.25 24.0625 C71.78246338 24.8450415 72.31492676 25.62758301 72.86352539 26.43383789 C74.57811824 28.9542472 76.28917912 31.47702917 78 34 C80.47707078 37.64726169 82.95645771 41.29293884 85.4375 44.9375 C86.06116455 45.85394287 86.6848291 46.77038574 87.32739258 47.71459961 C92.23349747 54.90941795 97.2188541 62.04625772 102.22680664 69.17041016 C105.16168407 73.35186873 108.06231571 77.54731354 110.875 81.8125 C114.67229059 87.56916015 118.61614745 93.21972546 122.5625 98.875 C129.85904443 109.33374891 137.06110271 119.85388602 144.23144531 130.39941406 C151.38285511 140.91526403 158.5649909 151.40610258 165.875 161.8125 C172.77135794 171.63003107 179.52639117 181.54093504 186.27197266 191.46240234 C192.69731732 200.89798195 199.19328559 210.28515056 205.6953125 219.66796875 C209.67642405 225.41865504 213.63259569 231.18654998 217.59277344 236.95166016 C219.8942918 240.30171899 222.19718895 243.65082968 224.5 247 C227.274145 251.03467062 230.04796307 255.06956406 232.8203125 259.10546875 C237.77124404 266.31182466 242.73402113 273.50957546 247.71484375 280.6953125 C249.72744695 283.60230925 251.72921705 286.51664069 253.72949219 289.43212891 C258.70553462 296.68475632 263.71978756 303.90983807 268.75 311.125 C275.35013888 320.59694308 281.87835455 330.11560244 288.3671875 339.6640625 C290.81906181 343.27115953 293.28311226 346.86946269 295.7578125 350.4609375 C296.35634033 351.33073242 296.95486816 352.20052734 297.5715332 353.09667969 C298.7008598 354.73674507 299.83209404 356.37549915 300.96557617 358.01269531 C301.46806885 358.74327148 301.97056152 359.47384766 302.48828125 360.2265625 C302.92696533 360.86158691 303.36564941 361.49661133 303.81762695 362.15087891 C305.0287174 364.04491133 306.00919091 365.98390357 307 368 C299.3146786 368.30507922 291.63092344 368.51472123 283.94091797 368.65917969 C281.32736884 368.71941016 278.71422217 368.80121851 276.10205078 368.90527344 C255.0502458 369.72266366 255.0502458 369.72266366 250.10803223 366.93148804 C246.86686438 363.89607223 245.5031912 360.07929441 244 356 C242.98283079 354.3901123 241.91733224 352.80931928 240.796875 351.26953125 C240.29824951 350.53903564 239.79962402 349.80854004 239.28588867 349.0559082 C238.77904541 348.3155835 238.27220215 347.57525879 237.75 346.8125 C237.19481689 346.00063232 236.63963379 345.18876465 236.06762695 344.35229492 C232.49094953 339.13577817 228.85750129 333.96360896 225.1875 328.8125 C219.53564493 320.87530475 214.14004721 312.77378401 208.78198242 304.63598633 C204.98029133 298.88300186 201.0451516 293.26419228 196.96435547 287.70605469 C193.77259042 283.30914643 190.7324696 278.8117351 187.6875 274.3125 C186.36740314 272.36964513 185.04708948 270.42693755 183.7265625 268.484375 C183.08879883 267.54529297 182.45103516 266.60621094 181.79394531 265.63867188 C175.01580011 255.66885787 168.14334556 245.76538084 161.25 235.875 C154.59278396 226.32176054 148.01338467 216.7177995 141.46484375 207.08984375 C137.10368222 200.67806192 132.70909513 194.28948323 128.31054688 187.90332031 C126.50065314 185.27479358 124.6927844 182.64487701 122.88500977 180.01489258 C121.96115709 178.6708848 121.03716604 177.32697213 120.11303711 175.9831543 C117.88198529 172.73881177 115.65222874 169.49359804 113.42578125 166.24609375 C108.06622751 158.43293873 102.66831807 150.64752861 97.25 142.875 C90.59268788 133.32182831 84.01338386 123.71779831 77.46484375 114.08984375 C73.10368222 107.67806192 68.70909513 101.28948323 64.31054688 94.90332031 C62.50065314 92.27479358 60.6927844 89.64487701 58.88500977 87.01489258 C57.96115709 85.6708848 57.03716604 84.32697213 56.11303711 82.9831543 C53.88198529 79.73881177 51.65222874 76.49359804 49.42578125 73.24609375 C48.5548087 71.97647935 47.68371295 70.70694945 46.8125 69.4375 C46.36801514 68.78974609 45.92353027 68.14199219 45.46557617 67.47460938 C42.76455165 63.54550462 40.04566328 59.62948025 37.3125 55.72265625 C29.5773252 44.65955741 21.98503526 33.52075042 14.54418945 22.25732422 C10.37847943 15.98028418 6.0780119 9.88599267 1.40625 3.9765625 C0 2 0 2 0 0 Z " fill="#000000" transform="translate(217,186)"/>
<path d="M0 0 C0.66 0 1.32 0 2 0 C3.15405273 1.3984375 3.15405273 1.3984375 4.43359375 3.375 C5.15156128 4.47038086 5.15156128 4.47038086 5.8840332 5.58789062 C6.39667725 6.38388672 6.90932129 7.17988281 7.4375 8 C8.52242357 9.65691435 9.60838276 11.31315099 10.6953125 12.96875 C11.24606445 13.81050781 11.79681641 14.65226562 12.36425781 15.51953125 C14.79962029 19.21255853 17.29930654 22.85965601 19.8125 26.5 C20.26979492 27.16354492 20.72708984 27.82708984 21.19824219 28.51074219 C23.67767149 32.10257386 26.17546756 35.68086793 28.6875 39.25 C33.30201474 45.81680943 37.7234944 52.51581029 42.11328125 59.234375 C43.87110891 61.99486447 43.87110891 61.99486447 46 64 C46.70710678 65.64991582 47.37943989 67.31562256 48 69 C47.01 69.495 47.01 69.495 46 70 C45.55011719 69.319375 45.10023438 68.63875 44.63671875 67.9375 C39.31686073 59.92039933 33.8864137 51.98432698 28.42333984 44.06445312 C26.11202952 40.71206203 23.80629299 37.35584372 21.5 34 C20.59115249 32.67838084 19.6822983 31.35676627 18.7734375 30.03515625 C16.86023211 27.25249773 14.94907041 24.4684479 13.0390625 21.68359375 C12.55115234 20.97267578 12.06324219 20.26175781 11.56054688 19.52929688 C10.63683166 18.18331185 9.71361415 16.83698507 8.79101562 15.49023438 C8.36755859 14.87341797 7.94410156 14.25660156 7.5078125 13.62109375 C7.09821289 13.02280762 6.68861328 12.42452148 6.26660156 11.80810547 C5.38756435 10.55325782 4.48674493 9.31349945 3.56933594 8.08642578 C0 3.29930165 0 3.29930165 0 0 Z " fill="#191919" transform="translate(339,362)"/>
<path d="M0 0 C7.56166298 -0.22863856 15.1224321 -0.38598559 22.68676758 -0.49438477 C25.25839545 -0.53958062 27.82979287 -0.60095167 30.40063477 -0.67895508 C34.10230343 -0.78843803 37.80091128 -0.83923551 41.50390625 -0.87890625 C42.64896133 -0.92535782 43.79401642 -0.97180939 44.97377014 -1.01966858 C52.84303232 -1.02461898 52.84303232 -1.02461898 56.33004761 2.06350708 C58.08452721 4.30402329 59.6041941 6.52286925 61 9 C60.34 9.66 59.68 10.32 59 11 C58.69802704 10.43410156 58.39605408 9.86820313 58.08493042 9.28515625 C56.01284148 5.94390308 54.42662725 3.44108282 50.56158447 2.24609375 C47.58245287 1.97859885 44.68601662 1.94420987 41.6953125 2 C40.61619598 1.98912354 39.53707947 1.97824707 38.42526245 1.96704102 C34.99082095 1.94092052 31.55936151 1.9697053 28.125 2 C25.79165127 1.99190709 23.45831204 1.98022894 21.125 1.96484375 C15.41594268 1.93501657 9.70893314 1.95441464 4 2 C5.65 4.97 7.3 7.94 9 11 C8.01 11.495 8.01 11.495 7 12 C5.82767315 10.3790787 4.6622923 8.75313167 3.5 7.125 C2.8503125 6.22007812 2.200625 5.31515625 1.53125 4.3828125 C0 2 0 2 0 0 Z " fill="#131313" transform="translate(217,186)"/>
<path d="M0 0 C2.69721986 3.25526534 4.8014609 6.33576817 7 10 C-11.15 10 -29.3 10 -48 10 C-48.66 8.35 -49.32 6.7 -50 5 C-49.01 5.33 -48.02 5.66 -47 6 C-47 6.66 -47 7.32 -47 8 C-30.83 7.67 -14.66 7.34 2 7 C1.01 5.02 0.02 3.04 -1 1 C-0.67 0.67 -0.34 0.34 0 0 Z " fill="#111111" transform="translate(517,544)"/>
<path d="M0 0 C4.81035973 4.3730543 8.59926143 9.46277438 12 15 C12 15.66 12 16.32 12 17 C12.66 17 13.32 17 14 17 C14.268125 17.52207031 14.53625 18.04414063 14.8125 18.58203125 C17.86223975 24.31032532 21.40987993 29.44687164 25.328125 34.6171875 C27 37 27 37 28 40 C27.01 40.495 27.01 40.495 26 41 C25.10861328 39.65421875 25.10861328 39.65421875 24.19921875 38.28125 C19.57855515 31.3196136 14.92092027 24.38556715 10.1875 17.5 C9.7443042 16.85482422 9.3011084 16.20964844 8.84448242 15.54492188 C8.41498291 14.92166016 7.9854834 14.29839844 7.54296875 13.65625 C7.12708496 13.05167969 6.71120117 12.44710938 6.28271484 11.82421875 C5.39596335 10.56312108 4.48852506 9.31640913 3.56494141 8.08203125 C0 3.30037346 0 3.30037346 0 0 Z " fill="#141414" transform="translate(504,473)"/>
<path d="M0 0 C0.99 0.33 1.98 0.66 3 1 C2.41992188 1.61746094 1.83984375 2.23492187 1.2421875 2.87109375 C-3.21419024 7.70251318 -7.13519878 12.49756365 -10.66796875 18.03515625 C-12.47897327 20.70652068 -14.63405435 22.81605017 -17 25 C-17.845625 25.86625 -18.69125 26.7325 -19.5625 27.625 C-21.62111985 29.63083473 -23.65476137 31.34964689 -26 33 C-24.46868767 27.94378004 -21.38776176 24.66582286 -17.9375 20.8125 C-17.35766357 20.15411133 -16.77782715 19.49572266 -16.18041992 18.81738281 C-12.06646207 14.15698218 -7.90761229 9.53557705 -3.70703125 4.953125 C-1.84435643 2.90725172 -1.84435643 2.90725172 0 0 Z " fill="#1A1A1A" transform="translate(262,507)"/>
<path d="M0 0 C3.92488093 3.70060202 7.02215543 7.4906925 10 12 C10 12.66 10 13.32 10 14 C10.66 14 11.32 14 12 14 C12.55171875 14.99128906 13.1034375 15.98257812 13.671875 17.00390625 C16.01683674 21.1075893 18.60627985 25.02187378 21.25 28.9375 C21.70890625 29.62134766 22.1678125 30.30519531 22.640625 31.00976562 C23.75828351 32.67461112 24.87883719 34.3375124 26 36 C25.34 36.66 24.68 37.32 24 38 C23.59797363 37.40687012 23.19594727 36.81374023 22.78173828 36.20263672 C14.98371852 24.70695394 7.15584929 13.2454769 -1 2 C-0.67 1.34 -0.34 0.68 0 0 Z " fill="#1A1A1A" transform="translate(410,465)"/>
<path d="M0 0 C3.84891688 1.28297229 4.45194412 2.77201495 6.65234375 6.13671875 C7.69358398 7.71549805 7.69358398 7.71549805 8.75585938 9.32617188 C9.48328244 10.44647857 10.2104943 11.56692242 10.9375 12.6875 C11.65357422 13.77740234 12.36964844 14.86730469 13.10742188 15.99023438 C14.45022718 18.03493236 15.78970201 20.08182421 17.12475586 22.1315918 C19.06539603 25.10003098 21.0288006 28.05179744 23 31 C22.01 31 21.02 31 20 31 C18.46948242 29.30688477 18.46948242 29.30688477 16.85546875 26.94140625 C16.26056641 26.07966797 15.66566406 25.21792969 15.05273438 24.33007812 C14.43720703 23.41677734 13.82167969 22.50347656 13.1875 21.5625 C12.58357422 20.68400391 11.97964844 19.80550781 11.35742188 18.90039062 C9.55803804 16.27588567 7.77864197 13.63859043 6 11 C5.41041504 10.1426123 4.82083008 9.28522461 4.21337891 8.40185547 C3.39039307 7.19553467 3.39039307 7.19553467 2.55078125 5.96484375 C2.05876221 5.24804443 1.56674316 4.53124512 1.05981445 3.79272461 C0 2 0 2 0 0 Z " fill="#1B1B1B" transform="translate(478,489)"/>
<path d="M0 0 C0.99 0.33 1.98 0.66 3 1 C1.96303454 3.63954844 1.08363473 4.93548178 -1.1875 6.6875 C-5.778892 10.46264453 -10.10278303 15.3083491 -12 21 C-13.33333333 21.66666667 -14.66666667 22.33333333 -16 23 C-17.70496537 24.62746694 -19.37897032 26.28891311 -21 28 C-20.41096527 24.13557516 -18.61765921 22.01199889 -16.125 19.0625 C-14.92423828 17.63164062 -14.92423828 17.63164062 -13.69921875 16.171875 C-12.79961702 15.11446604 -11.8998698 14.05718084 -11 13 C-9.98512933 11.79733701 -8.97082101 10.59419929 -7.95703125 9.390625 C-5.31215718 6.25402667 -2.65823085 3.12528449 0 0 Z " fill="#1B1B1B" transform="translate(464,272)"/>
<path d="M0 0 C3.59854349 1.1995145 4.18616815 2.27925223 6.25 5.375 C6.79140625 6.16648437 7.3328125 6.95796875 7.890625 7.7734375 C9 10 9 10 8 13 C6.02 10.36 4.04 7.72 2 5 C-1.49353838 6.74676919 -3.13945763 7.91405215 -5.75 10.625 C-6.36359375 11.25664062 -6.9771875 11.88828125 -7.609375 12.5390625 C-8.06828125 13.02117187 -8.5271875 13.50328125 -9 14 C-9.99 13.67 -10.98 13.34 -12 13 C-8.04 8.71 -4.08 4.42 0 0 Z " fill="#101010" transform="translate(340,417)"/>
<path d="M0 0 C4.18177044 1.39392348 5.48822545 4.37609716 7.75 7.9375 C8.63542903 9.3068244 9.52215381 10.6753118 10.41015625 12.04296875 C10.84602051 12.71634277 11.28188477 13.3897168 11.73095703 14.08349609 C13.99327379 17.50003833 16.45287214 20.77491832 18.91796875 24.046875 C19.45357422 25.01367188 19.45357422 25.01367188 20 26 C19.67 26.99 19.34 27.98 19 29 C17.99106869 27.90398831 16.99311775 26.79786082 16 25.6875 C15.443125 25.07261719 14.88625 24.45773437 14.3125 23.82421875 C13 22 13 22 13 19 C12.34 19 11.68 19 11 19 C9.4140625 16.8046875 9.4140625 16.8046875 7.625 13.875 C5.65838921 10.68490274 3.70292221 7.51387743 1.5625 4.4375 C0 2 0 2 0 0 Z " fill="#141414" transform="translate(280,330)"/>
<path d="M0 0 C4.16351849 4.01994889 7.24190256 8.29572063 10.3125 13.1875 C13.46517738 18.17812121 16.70064867 23.10535792 20 28 C19.34 28.66 18.68 29.32 18 30 C17.52578613 29.28344238 17.05157227 28.56688477 16.56298828 27.82861328 C14.80182578 25.16982324 13.03858601 22.51242664 11.27392578 19.85595703 C10.51072 18.70612086 9.74834376 17.55573362 8.98681641 16.40478516 C7.89183509 14.75017845 6.79361637 13.09771562 5.6953125 11.4453125 C5.03547363 10.45031738 4.37563477 9.45532227 3.69580078 8.43017578 C2.07947094 5.9626482 2.07947094 5.9626482 0 4 C0 2.68 0 1.36 0 0 Z " fill="#171717" transform="translate(415,343)"/>
<path d="M0 0 C2.3733534 2.23275609 4.19843032 4.58271456 6.03125 7.2734375 C6.59457031 8.0984375 7.15789062 8.9234375 7.73828125 9.7734375 C8.31964844 10.63195312 8.90101563 11.49046875 9.5 12.375 C10.08136719 13.22578125 10.66273438 14.0765625 11.26171875 14.953125 C13.9533186 18.90737467 16.61059034 22.85266752 19 27 C18.01 27 17.02 27 16 27 C12.33220405 23.23439616 9.64656734 18.53024691 7.14453125 13.94140625 C4.69710091 9.78996297 1.80447956 5.91524253 -1 2 C-0.67 1.34 -0.34 0.68 0 0 Z " fill="#191919" transform="translate(412,520)"/>
<path d="M0 0 C0.66 0 1.32 0 2 0 C2.433125 0.9590625 2.433125 0.9590625 2.875 1.9375 C3.82823451 4.15206079 3.82823451 4.15206079 6 5 C6.68132451 6.66072849 7.34742127 8.327767 8 10 C8.66 10.66 9.32 11.32 10 12 C11.19375198 13.77373526 12.35684835 15.56823913 13.5 17.375 C14.1084375 18.33148437 14.716875 19.28796875 15.34375 20.2734375 C16.68518627 22.48174533 17.894682 24.66777903 19 27 C18.34 27.33 17.68 27.66 17 28 C16.35933594 27.03320312 15.71867188 26.06640625 15.05859375 25.0703125 C14.18505765 23.75510084 13.31134781 22.44000457 12.4375 21.125 C11.98584473 20.44405273 11.53418945 19.76310547 11.06884766 19.06152344 C7.88295189 14.27533902 4.59458391 9.57975884 1.1796875 4.953125 C0 3 0 3 0 0 Z " fill="#151515" transform="translate(535,518)"/>
<path d="M0 0 C0.33 0.99 0.66 1.98 1 3 C0.67 3.66 0.34 4.32 0 5 C-0.66 5 -1.32 5 -2 5 C-2.2475 5.7425 -2.495 6.485 -2.75 7.25 C-4.09365194 10.20603427 -5.68986685 11.76687128 -8 14 C-8 14.66 -8 15.32 -8 16 C-13.47619048 21 -13.47619048 21 -16 21 C-15.54765229 16.61327917 -12.60224454 14.0828239 -9.6875 11.0625 C-8.71073151 10.03398218 -7.73544936 9.00405059 -6.76171875 7.97265625 C-6.06054932 7.23039795 -6.06054932 7.23039795 -5.34521484 6.47314453 C-3.45310714 4.40109772 -1.71860685 2.21663544 0 0 Z " fill="#181818" transform="translate(227,548)"/>
<path d="M0 0 C3.40339532 2.06634716 4.9362148 4.41550612 6.78515625 7.890625 C8.80136912 11.39144477 11.23168222 14.6014464 13.609375 17.86328125 C15 20 15 20 15 22 C15.66 22 16.32 22 17 22 C17.33 23.32 17.66 24.64 18 26 C17.34 26.33 16.68 26.66 16 27 C15.61070312 26.36835937 15.22140625 25.73671875 14.8203125 25.0859375 C9.86034043 17.15455359 4.49171111 9.56905858 -1 2 C-0.67 1.34 -0.34 0.68 0 0 Z " fill="#141414" transform="translate(444,514)"/>
<path d="M0 0 C3.62974203 4.40314953 6.90762523 9.02287713 10.1875 13.6875 C11.00637695 14.84475586 11.00637695 14.84475586 11.84179688 16.02539062 C15.87128531 21.74257063 15.87128531 21.74257063 17 24 C15.25 23.875 15.25 23.875 13 23 C10.875 20.0625 10.875 20.0625 9 17 C8.34 16.34 7.68 15.68 7 15 C5.97019257 13.39372429 4.97379197 11.76583948 4 10.125 C3.484375 9.26132812 2.96875 8.39765625 2.4375 7.5078125 C1.21096025 5.36803391 0.07357931 3.21941876 -1 1 C-0.67 0.67 -0.34 0.34 0 0 Z " fill="#151515" transform="translate(367,326)"/>
<path d="M0 0 C0.66 0.66 1.32 1.32 2 2 C1.28714844 2.76183594 0.57429688 3.52367187 -0.16015625 4.30859375 C-5.75208442 10.32360508 -11.1083276 16.38872946 -16 23 C-16.66 22.34 -17.32 21.68 -18 21 C-17.25 18.625 -17.25 18.625 -16 16 C-14.671091 15.32455711 -13.33727025 14.65873401 -12 14 C-10.40435415 12.5007955 -10.40435415 12.5007955 -8.984375 10.7421875 C-8.19160156 9.80439453 -8.19160156 9.80439453 -7.3828125 8.84765625 C-6.57457031 7.87119141 -6.57457031 7.87119141 -5.75 6.875 C-5.19570313 6.21628906 -4.64140625 5.55757812 -4.0703125 4.87890625 C-2.7075169 3.25764942 -1.35294297 1.62948792 0 0 Z " fill="#181818" transform="translate(481,208)"/>
<path d="M0 0 C4.12712443 1.51664929 5.63048291 4.04652452 7.9375 7.6875 C10.21402022 11.24296416 12.49068465 14.71482974 15.0625 18.0625 C16.0215625 19.5165625 16.0215625 19.5165625 17 21 C16.67 21.99 16.34 22.98 16 24 C13.22017379 22.6100869 13.12536659 20.81341647 12 18 C11.34 17.67 10.68 17.34 10 17 C10 16.01 10 15.02 10 14 C9.34 14 8.68 14 8 14 C6.30859375 11.69921875 6.30859375 11.69921875 4.4375 8.6875 C3.81746094 7.70136719 3.19742188 6.71523437 2.55859375 5.69921875 C1 3 1 3 0 0 Z " fill="#151515" transform="translate(175,178)"/>
<path d="M0 0 C3.91802781 3.57286822 6.76903563 7.71623829 9.75 12.0625 C10.25660156 12.78244141 10.76320313 13.50238281 11.28515625 14.24414062 C11.76339844 14.93830078 12.24164063 15.63246094 12.734375 16.34765625 C13.38744629 17.29137085 13.38744629 17.29137085 14.05371094 18.25415039 C15 20 15 20 15 23 C11.2887953 21.76293177 11.03939115 20.77906668 9.1875 17.4375 C6.79218722 13.24120017 4.18448853 9.50438362 1.1015625 5.7890625 C0 4 0 4 0 0 Z " fill="#1B1B1B" transform="translate(263,304)"/>
<path d="M0 0 C0.66 0 1.32 0 2 0 C3.69140625 2.30078125 3.69140625 2.30078125 5.5625 5.3125 C6.18253906 6.29863281 6.80257812 7.28476562 7.44140625 8.30078125 C9 11 9 11 10 14 C10.66 14 11.32 14 12 14 C12.99 16.31 13.98 18.62 15 21 C14.34 21.33 13.68 21.66 13 22 C10.82199326 18.90364795 8.65960765 15.79670644 6.5 12.6875 C5.87996094 11.80642578 5.25992188 10.92535156 4.62109375 10.01757812 C4.03457031 9.17001953 3.44804688 8.32246094 2.84375 7.44921875 C2.29912109 6.66893311 1.75449219 5.88864746 1.19335938 5.0847168 C0 3 0 3 0 0 Z " fill="#161616" transform="translate(555,547)"/>
<path d="M0 0 C2 2.5 2 2.5 4 5 C5.11375 6.3303125 5.11375 6.3303125 6.25 7.6875 C8 10 8 10 8 12 C8.66 12 9.32 12 10 12 C11.65 15.3 13.3 18.6 15 22 C14.34 22.33 13.68 22.66 13 23 C12.48050781 22.21496094 11.96101563 21.42992187 11.42578125 20.62109375 C10.72839844 19.57050781 10.03101563 18.51992188 9.3125 17.4375 C8.22388672 15.79587891 8.22388672 15.79587891 7.11328125 14.12109375 C5.46635689 11.68875999 3.77498293 9.33765763 2 7 C0 4 0 4 0 0 Z " fill="#171717" transform="translate(392,438)"/>
<path d="M0 0 C4.17084955 1.52091382 5.7195086 4.15129379 8.0625 7.8125 C8.73410156 8.85019531 9.40570313 9.88789063 10.09765625 10.95703125 C11.76291683 13.62076429 13.39703268 16.2984258 15 19 C14.01 19 13.02 19 12 19 C10.16832744 16.80614908 8.54830186 14.65953444 6.9375 12.3125 C6.26750977 11.37374023 6.26750977 11.37374023 5.58398438 10.41601562 C3.23279183 7.05967948 1.32489557 3.91480441 0 0 Z " fill="#191919" transform="translate(424,411)"/>
<path d="M0 0 C0.99 0.33 1.98 0.66 3 1 C4.1875 4.0625 4.1875 4.0625 5 7 C5.66 7 6.32 7 7 7 C8.46582355 9.14281033 9.81123514 11.26706396 11.125 13.5 C11.68380859 14.43005859 11.68380859 14.43005859 12.25390625 15.37890625 C13.17578953 16.91537838 14.08873475 18.45720675 15 20 C14.34 20.66 13.68 21.32 13 22 C12.48050781 21.21496094 11.96101563 20.42992187 11.42578125 19.62109375 C6.84039828 12.69015202 6.84039828 12.69015202 2 5.9375 C0 3 0 3 0 0 Z " fill="#181818" transform="translate(358,261)"/>
<path d="M0 0 C0.66 0.66 1.32 1.32 2 2 C1.36191406 2.67546875 0.72382813 3.3509375 0.06640625 4.046875 C-0.75988281 4.93890625 -1.58617187 5.8309375 -2.4375 6.75 C-3.26121094 7.63171875 -4.08492188 8.5134375 -4.93359375 9.421875 C-6.88358263 11.85475337 -7.44067839 13.04546586 -8 16 C-9.875 17.3125 -9.875 17.3125 -12 18 C-12.99 17.67 -13.98 17.34 -15 17 C-14.16855469 16.10796875 -13.33710938 15.2159375 -12.48046875 14.296875 C-11.38271261 13.11467608 -10.2850619 11.93237926 -9.1875 10.75 C-8.64029297 10.16347656 -8.09308594 9.57695312 -7.52929688 8.97265625 C-4.85219687 6.08463321 -2.27491168 3.22478709 0 0 Z " fill="#1F1F1F" transform="translate(318,442)"/>
<path d="M0 0 C3.30326989 3.12471476 5.7597192 6.0528386 8 10 C8.66 10.66 9.32 11.32 10 12 C14 17.64705882 14 17.64705882 14 20 C10.89883033 18.66886862 9.28607871 17.43389131 7.421875 14.62890625 C6.76445312 13.64374023 6.76445312 13.64374023 6.09375 12.63867188 C5.6503125 11.95353516 5.206875 11.26839844 4.75 10.5625 C4.06164062 9.5405957 4.06164062 9.5405957 3.359375 8.49804688 C0 3.39399647 0 3.39399647 0 0 Z " fill="#191919" transform="translate(290,162)"/>
<path d="M0 0 C3.38956166 1.12985389 3.78574251 1.73869763 5.69921875 4.59765625 C6.18583984 5.31630859 6.67246094 6.03496094 7.17382812 6.77539062 C7.67333984 7.53013672 8.17285156 8.28488281 8.6875 9.0625 C9.19861328 9.82111328 9.70972656 10.57972656 10.23632812 11.36132812 C11.49806185 13.23624085 12.75220179 15.1157962 14 17 C13.34 17.66 12.68 18.32 12 19 C10.66094733 17.2126038 9.32890934 15.41995047 8 13.625 C7.2575 12.62726563 6.515 11.62953125 5.75 10.6015625 C4 8 4 8 4 6 C3.34 6 2.68 6 2 6 C2 5.01 2 4.02 2 3 C1.34 3 0.68 3 0 3 C0 2.01 0 1.02 0 0 Z " fill="#222222" transform="translate(385,354)"/>
<path d="M0 0 C0.33 0.99 0.66 1.98 1 3 C-0.26457031 4.35544922 -0.26457031 4.35544922 -1.5546875 5.73828125 C-2.66156839 6.92958526 -3.76833316 8.12099715 -4.875 9.3125 C-5.43058594 9.90740234 -5.98617187 10.50230469 -6.55859375 11.11523438 C-7.09355469 11.69208984 -7.62851563 12.26894531 -8.1796875 12.86328125 C-8.67194824 13.39219971 -9.16420898 13.92111816 -9.67138672 14.46606445 C-11.20581796 16.17281235 -11.20581796 16.17281235 -13 19 C-13.66 19 -14.32 19 -15 19 C-14.34 17.35 -13.68 15.7 -13 14 C-12.34 14 -11.68 14 -11 14 C-10.64808594 13.17242187 -10.64808594 13.17242187 -10.2890625 12.328125 C-8.67151842 9.40674236 -6.63549805 7.20425503 -4.375 4.75 C-3.55773437 3.85796875 -2.74046875 2.9659375 -1.8984375 2.046875 C-1.27195313 1.37140625 -0.64546875 0.6959375 0 0 Z " fill="#1B1B1B" transform="translate(244,484)"/>
<path d="M0 0 C3.30289626 3.07280686 5.71945242 6.35578663 8.1875 10.125 C9.22970703 11.70667969 9.22970703 11.70667969 10.29296875 13.3203125 C12 16 12 16 13 18 C12.34 18.66 11.68 19.32 11 20 C8 15.25 8 15.25 8 13 C7.01 12.67 6.02 12.34 5 12 C2.39853671 8.02129144 0.57930104 4.77923358 0 0 Z " fill="#161616" transform="translate(340,287)"/>
<path d="M0 0 C0.66 0 1.32 0 2 0 C3.04956166 1.63590895 4.04022052 3.30985174 5 5 C6.79918756 7.58485899 8.63577848 10.13996254 10.4765625 12.6953125 C12 15 12 15 13 18 C12.34 18.33 11.68 18.66 11 19 C9.15527264 16.40373357 7.32626878 13.79677591 5.5 11.1875 C4.97535156 10.44951172 4.45070313 9.71152344 3.91015625 8.95117188 C3.41386719 8.23896484 2.91757812 7.52675781 2.40625 6.79296875 C1.94541016 6.1383667 1.48457031 5.48376465 1.00976562 4.80932617 C0 3 0 3 0 0 Z " fill="#151515" transform="translate(315,327)"/>
<path d="M0 0 C2.95373112 2.81650025 5.39708934 5.72920989 7.75 9.0625 C8.36359375 9.91972656 8.9771875 10.77695312 9.609375 11.66015625 C11 14 11 14 11 17 C10.34 17 9.68 17 9 17 C7.59348773 15.13637125 6.27343742 13.20697369 5 11.25 C4.29875 10.18265625 3.5975 9.1153125 2.875 8.015625 C1.43931677 5.70656781 0.14617979 3.45951081 -1 1 C-0.67 0.67 -0.34 0.34 0 0 Z " fill="#1C1C1C" transform="translate(501,521)"/>
<path d="M0 0 C3.19249477 2.96647745 5.4592987 6.04963636 7.75 9.75 C8.36359375 10.73484375 8.9771875 11.7196875 9.609375 12.734375 C10.29773438 13.85585938 10.29773438 13.85585938 11 15 C10.01 15 9.02 15 8 15 C6.61328125 13.5390625 6.61328125 13.5390625 5.3125 11.625 C4.87550781 10.99851562 4.43851562 10.37203125 3.98828125 9.7265625 C3 8 3 8 3 6 C2.34 6 1.68 6 1 6 C0.67 4.02 0.34 2.04 0 0 Z " fill="#1B1B1B" transform="translate(400,503)"/>
<path d="M0 0 C0.66 0 1.32 0 2 0 C3.38938077 1.96147874 4.7260411 3.96166576 6 6 C7.98 4.35 9.96 2.7 12 1 C11.42647107 4.87132028 9.51295648 7.08172796 7 10 C2.95868733 8.65289578 2.09711566 6.61571666 0 3 C0 2.01 0 1.02 0 0 Z " fill="#171717" transform="translate(387,303)"/>
<path d="M0 0 C3.19249477 2.96647745 5.4592987 6.04963636 7.75 9.75 C8.36359375 10.73484375 8.9771875 11.7196875 9.609375 12.734375 C10.29773438 13.85585938 10.29773438 13.85585938 11 15 C10.01 15 9.02 15 8 15 C6.61876037 13.03277992 5.28511874 11.03131672 4 9 C3.34 8.67 2.68 8.34 2 8 C0.94647157 5.69034152 -0.05719096 3.3570226 -1 1 C-0.67 0.67 -0.34 0.34 0 0 Z " fill="#1B1B1B" transform="translate(301,359)"/>
<path d="M0 0 C4.08371057 3.6125132 7.53618364 8.13508261 10 13 C9.67 13.99 9.34 14.98 9 16 C7.51586815 14.06613122 6.03762572 12.12821927 4.5625 10.1875 C4.14162109 9.64029297 3.72074219 9.09308594 3.28710938 8.52929688 C1.38855525 6.02320543 0.00193327 4.00579981 -1 1 C-0.67 0.67 -0.34 0.34 0 0 Z " fill="#1B1B1B" transform="translate(318,255)"/>
<path d="M0 0 C3.19249477 2.96647745 5.4592987 6.04963636 7.75 9.75 C8.36359375 10.73484375 8.9771875 11.7196875 9.609375 12.734375 C10.29773438 13.85585937 10.29773438 13.85585937 11 15 C10.34 15.66 9.68 16.32 9 17 C7.70545435 15.08527667 6.41447056 13.16814482 5.125 11.25 C4.40570313 10.18265625 3.68640625 9.1153125 2.9453125 8.015625 C1.45492743 5.70522886 0.14800599 3.48936036 -1 1 C-0.67 0.67 -0.34 0.34 0 0 Z " fill="#161616" transform="translate(320,205)"/>
<path d="M0 0 C4.39970265 4.0114936 8.42485876 8.58833101 11 14 C10.6640625 16.27734375 10.6640625 16.27734375 10 18 C0 3 0 3 0 0 Z " fill="#181818" transform="translate(192,201)"/>
<path d="M0 0 C3.63559661 3.43361902 6.36113346 6.7973607 9 11 C8.34 12.32 7.68 13.64 7 15 C4.73604414 12.73604414 4.16905482 10.95702102 3 8 C2.46375 7.13375 1.9275 6.2675 1.375 5.375 C0 3 0 3 0 0 Z " fill="#212121" transform="translate(316,381)"/>
<path d="M0 0 C4.0364974 1.34549913 4.86986428 3.35422005 7.1875 6.875 C7.90292969 7.94492188 8.61835938 9.01484375 9.35546875 10.1171875 C11 13 11 13 11 16 C6.50683005 11.90328622 3.02186027 7.28565938 0 2 C0 1.34 0 0.68 0 0 Z " fill="#1A1A1A" transform="translate(163,160)"/>
<path d="M0 0 C0.99 0 1.98 0 3 0 C5.04296875 2.51953125 5.04296875 2.51953125 7.1875 5.8125 C7.90292969 6.89144531 8.61835938 7.97039062 9.35546875 9.08203125 C11 12 11 12 11 15 C6.12694031 10.70024145 3.1799558 5.62775683 0 0 Z " fill="#1E1E1E" transform="translate(458,461)"/>
<path d="M0 0 C3.71080883 4.42442592 6.84577733 9.17403931 10 14 C9.01 14 8.02 14 7 14 C5.46484375 12.06640625 5.46484375 12.06640625 3.9375 9.5625 C2.02575478 6.18407643 2.02575478 6.18407643 -1 4 C-0.67 2.68 -0.34 1.36 0 0 Z " fill="#1D1D1D" transform="translate(366,453)"/>
<path d="M0 0 C0.33 0.99 0.66 1.98 1 3 C-0.57871821 5.20430375 -2.14761637 7.16942403 -3.9375 9.1875 C-4.41896484 9.74630859 -4.90042969 10.30511719 -5.39648438 10.88085938 C-6.58857598 12.26179717 -7.79314375 13.63194679 -9 15 C-10.32 14.67 -11.64 14.34 -13 14 C-12.26394531 13.44828125 -11.52789062 12.8965625 -10.76953125 12.328125 C-7.99022788 9.99178536 -5.90965077 7.6124315 -3.6875 4.75 C-2.64142578 3.41195313 -2.64142578 3.41195313 -1.57421875 2.046875 C-1.05472656 1.37140625 -0.53523438 0.6959375 0 0 Z " fill="#1A1A1A" transform="translate(295,424)"/>
<path d="M0 0 C3.19249477 2.96647745 5.4592987 6.04963636 7.75 9.75 C8.36359375 10.73484375 8.9771875 11.7196875 9.609375 12.734375 C10.29773438 13.85585938 10.29773438 13.85585938 11 15 C10.01 15 9.02 15 8 15 C6.2109375 12.98828125 6.2109375 12.98828125 4.375 10.3125 C3.76398438 9.44238281 3.15296875 8.57226562 2.5234375 7.67578125 C1.01954614 5.03433104 0.39886058 2.99145437 0 0 Z " fill="#181818" transform="translate(353,306)"/>
<path d="M0 0 C0.66 0 1.32 0 2 0 C3.62946228 2.30595384 5.1435897 4.60196707 6.625 7 C7.04523438 7.66773438 7.46546875 8.33546875 7.8984375 9.0234375 C8.93864592 10.67831454 9.97014051 12.33866288 11 14 C10.34 14.66 9.68 15.32 9 16 C7.49130977 13.90160347 5.99301643 11.79700219 4.5 9.6875 C4.07074219 9.09259766 3.64148438 8.49769531 3.19921875 7.88476562 C0 3.33984375 0 3.33984375 0 0 Z " fill="#161616" transform="translate(284,282)"/>
<path d="M0 0 C0.33 0.66 0.66 1.32 1 2 C-6.94243107 12.50598231 -6.94243107 12.50598231 -11 16 C-11.99 16 -12.98 16 -14 16 C-13.24074219 15.18015625 -12.48148437 14.3603125 -11.69921875 13.515625 C-10.69521546 12.42717284 -9.6913146 11.33862618 -8.6875 10.25 C-8.18798828 9.71117187 -7.68847656 9.17234375 -7.17382812 8.6171875 C-4.62043007 5.84396048 -2.18903551 3.07809771 0 0 Z " fill="#D7D7D7" transform="translate(436,263)"/>
<path d="M0 0 C0.66 0.66 1.32 1.32 2 2 C0.56354149 3.60509934 -0.87420706 5.20904424 -2.3125 6.8125 C-3.11300781 7.70582031 -3.91351563 8.59914063 -4.73828125 9.51953125 C-6.45224581 11.39926786 -8.17877604 13.22592747 -10 15 C-10 10.79452429 -7.63261876 8.83289639 -5 5.8125 C-4.52304687 5.25369141 -4.04609375 4.69488281 -3.5546875 4.11914062 C-2.37633794 2.74047164 -1.18901048 1.36948528 0 0 Z " fill="#171717" transform="translate(412,288)"/>
<path d="M0 0 C4.54075781 4.14010271 7.71842138 8.82390176 11 14 C10.34 14.66 9.68 15.32 9 16 C7.49130977 13.90160347 5.99301643 11.79700219 4.5 9.6875 C4.07074219 9.09259766 3.64148438 8.49769531 3.19921875 7.88476562 C0 3.33984375 0 3.33984375 0 0 Z " fill="#1E1E1E" transform="translate(338,232)"/>
<path d="M0 0 C-2.07228757 4.70974448 -4.88813331 9.687218 -9.3125 12.4375 C-9.869375 12.623125 -10.42625 12.80875 -11 13 C-9.75810874 8.58438665 -5.13864596 0 0 0 Z " fill="#191919" transform="translate(528,200)"/>
<path d="M0 0 C3.92247359 3.69833224 7.1189547 7.42422217 10 12 C9.67 12.99 9.34 13.98 9 15 C5.28919117 10.57557408 2.15422267 5.82596069 -1 1 C-0.67 0.67 -0.34 0.34 0 0 Z " fill="#1C1C1C" transform="translate(410,465)"/>
<path d="M0 0 C3.58806317 3.38872633 6.45684799 6.76141332 9 11 C9 11.66 9 12.32 9 13 C9.66 13 10.32 13 11 13 C10.67 13.66 10.34 14.32 10 15 C9.34 15 8.68 15 8 15 C6.54805635 13.11947058 5.18635395 11.16863151 3.875 9.1875 C3.15054687 8.10855469 2.42609375 7.02960938 1.6796875 5.91796875 C0 3 0 3 0 0 Z " fill="#191919" transform="translate(304,311)"/>
<path d="M0 0 C0.66 0.66 1.32 1.32 2 2 C-1.24730231 6.96646236 -3.87220625 10.01872456 -9 13 C-7.47987323 7.59510481 -3.72614782 4.01507372 0 0 Z " fill="#1D1D1D" transform="translate(428,314)"/>
<path d="M0 0 C0.99 0.33 1.98 0.66 3 1 C-0.16295209 4.88591257 -3.403115 8.50032811 -7 12 C-7.66 12.66 -8.32 13.32 -9 14 C-8.50128936 9.54326841 -6.97995638 7.42312822 -3.9375 4.1875 C-3.20402344 3.39730469 -2.47054688 2.60710937 -1.71484375 1.79296875 C-1.14894531 1.20128906 -0.58304687 0.60960937 0 0 Z " fill="#1F1F1F" transform="translate(477,257)"/>
<path d="M0 0 C0.66 0.66 1.32 1.32 2 2 C1.24203125 2.83144531 1.24203125 2.83144531 0.46875 3.6796875 C-0.1809375 4.40414062 -0.830625 5.12859375 -1.5 5.875 C-2.1496875 6.59429688 -2.799375 7.31359375 -3.46875 8.0546875 C-5.20617272 9.84931098 -5.20617272 9.84931098 -5 12 C-6.32 11.34 -7.64 10.68 -9 10 C-8.06409496 8.8944811 -7.12620142 7.79064547 -6.1875 6.6875 C-5.66542969 6.07261719 -5.14335937 5.45773437 -4.60546875 4.82421875 C-3.12827531 3.14575321 -1.59960869 1.56117966 0 0 Z " fill="#171717" transform="translate(169,571)"/>
<path d="M0 0 C0.66 0.66 1.32 1.32 2 2 C-0.64 4.97 -3.28 7.94 -6 11 C-6.66 10.34 -7.32 9.68 -8 9 C-7.34 8.01 -6.68 7.02 -6 6 C-5.34 6 -4.68 6 -4 6 C-4.33 5.01 -4.66 4.02 -5 3 C-3.35 2.01 -1.7 1.02 0 0 Z " fill="#191919" transform="translate(213,520)"/>
<path d="M0 0 C3.94875582 1.31625194 4.54992713 3.05365398 6.6875 6.5625 C7.31011719 7.57441406 7.93273437 8.58632813 8.57421875 9.62890625 C9.04472656 10.41136719 9.51523437 11.19382812 10 12 C9.01 12 8.02 12 7 12 C5.17578125 9.8828125 5.17578125 9.8828125 3.3125 7.125 C2.37857422 5.76761719 2.37857422 5.76761719 1.42578125 4.3828125 C0 2 0 2 0 0 Z " fill="#1B1B1B" transform="translate(280,330)"/>
<path d="M0 0 C-0.25 2.375 -0.25 2.375 -1 5 C-2.75 6 -2.75 6 -5 7 C-6.70496537 8.62746694 -8.37897032 10.28891311 -10 12 C-9.40716913 8.39428893 -7.97258223 6.45570562 -5.5625 3.75 C-4.94503906 3.04359375 -4.32757813 2.3371875 -3.69140625 1.609375 C-2 0 -2 0 0 0 Z " fill="#121212" transform="translate(453,288)"/>
<path d="M0 0 C0.33 0.99 0.66 1.98 1 3 C-0.07421875 4.97265625 -0.07421875 4.97265625 -1.6875 7.0625 C-2.20699219 7.75472656 -2.72648437 8.44695312 -3.26171875 9.16015625 C-5.06223358 11.0658697 -6.60035853 11.99100043 -9 13 C-7.47987323 7.59510481 -3.72614782 4.01507372 0 0 Z " fill="#1B1B1B" transform="translate(514,214)"/>
<path d="M0 0 C1.32 0.33 2.64 0.66 4 1 C3.38125 1.2475 2.7625 1.495 2.125 1.75 C-0.4072196 3.23954094 -0.80718658 4.37581048 -2 7 C-3.625 8.75 -3.625 8.75 -5 10 C-5.99 9.67 -6.98 9.34 -8 9 C-5.36 6.03 -2.72 3.06 0 0 Z " fill="#1F1F1F" transform="translate(550,172)"/>
<path d="M0 0 C0.33 0.99 0.66 1.98 1 3 C-0.87109375 5.69921875 -0.87109375 5.69921875 -3.4375 8.6875 C-4.28183594 9.68136719 -5.12617188 10.67523437 -5.99609375 11.69921875 C-6.98802734 12.83810547 -6.98802734 12.83810547 -8 14 C-8.66 13.34 -9.32 12.68 -10 12 C-9.36191406 11.30132813 -8.72382813 10.60265625 -8.06640625 9.8828125 C-7.24011719 8.97273437 -6.41382813 8.06265625 -5.5625 7.125 C-4.73878906 6.22007812 -3.91507813 5.31515625 -3.06640625 4.3828125 C-0.99092058 2.18862073 -0.99092058 2.18862073 0 0 Z " fill="#1A1A1A" transform="translate(191,545)"/>
<path d="M0 0 C0.99 0.33 1.98 0.66 3 1 C1.54234835 2.62561151 0.08385614 4.25046934 -1.375 5.875 C-2.18710937 6.77992188 -2.99921875 7.68484375 -3.8359375 8.6171875 C-5.19076205 10.10896183 -6.57505435 11.57505435 -8 13 C-7.48118887 8.8275894 -6.28848726 6.74583179 -3.4375 3.6875 C-2.79683594 2.99011719 -2.15617187 2.29273438 -1.49609375 1.57421875 C-1.00238281 1.05472656 -0.50867188 0.53523438 0 0 Z " fill="#1D1D1D" transform="translate(299,464)"/>
<path d="M0 0 C3.25519625 3.02268223 5.78310719 6.14096436 8 10 C7.67 10.99 7.34 11.98 7 13 C3.78119883 9.2064129 1.3836813 5.34170523 -1 1 C-0.67 0.67 -0.34 0.34 0 0 Z " fill="#1B1B1B" transform="translate(446,441)"/>
<path d="M0 0 C0.66 0.66 1.32 1.32 2 2 C-0.64 4.97 -3.28 7.94 -6 11 C-6.99 10.67 -7.98 10.34 -9 10 C-6.03 6.7 -3.06 3.4 0 0 Z " fill="#1B1B1B" transform="translate(502,228)"/>
<path d="M0 0 C0.99 0 1.98 0 3 0 C7.42857143 7.28571429 7.42857143 7.28571429 8 12 C4.74451247 8.97704729 2.31022942 5.79537691 0 2 C0 1.34 0 0.68 0 0 Z " fill="#121212" transform="translate(419,479)"/>
<path d="M0 0 C0.33 0.99 0.66 1.98 1 3 C-1.64 5.97 -4.28 8.94 -7 12 C-7.66 11.34 -8.32 10.68 -9 10 C-8.67 9.34 -8.34 8.68 -8 8 C-7.34 8 -6.68 8 -6 8 C-5.7525 7.4225 -5.505 6.845 -5.25 6.25 C-3.83316683 3.6997003 -2.12372463 1.98214299 0 0 Z " fill="#1D1D1D" transform="translate(318,398)"/>
<path d="M0 0 C3.9036874 3.46994436 6.36588975 7.55224006 9 12 C8.01 12 7.02 12 6 12 C2.62011399 8.31285162 0 5.0845983 0 0 Z " fill="#191919" transform="translate(208,224)"/>
<path d="M0 0 C2.9156164 3.54039134 5.50127818 7.1626772 8 11 C7.01 11 6.02 11 5 11 C2.99006295 8.99006295 2.10059081 7.40788768 0.875 4.875 C0.52179688 4.15054687 0.16859375 3.42609375 -0.1953125 2.6796875 C-0.46085937 2.12539063 -0.72640625 1.57109375 -1 1 C-0.67 0.67 -0.34 0.34 0 0 Z " fill="#1A1A1A" transform="translate(409,387)"/>
<path d="M0 0 C2.9156164 3.54039134 5.50127818 7.1626772 8 11 C7.01 11 6.02 11 5 11 C3.359375 9.35546875 3.359375 9.35546875 1.75 7.1875 C1.20859375 6.47980469 0.6671875 5.77210938 0.109375 5.04296875 C-0.25671875 4.36878906 -0.6228125 3.69460938 -1 3 C-0.67 2.01 -0.34 1.02 0 0 Z " fill="#1B1B1B" transform="translate(379,472)"/>
<path d="M0 0 C2.9156164 3.54039134 5.50127818 7.1626772 8 11 C7.01 11 6.02 11 5 11 C3.39453125 9.03125 3.39453125 9.03125 1.8125 6.5 C1.28269531 5.6646875 0.75289063 4.829375 0.20703125 3.96875 C-0.19128906 3.3190625 -0.58960938 2.669375 -1 2 C-0.67 1.34 -0.34 0.68 0 0 Z " fill="#1B1B1B" transform="translate(400,374)"/>
<path d="M0 0 C0.66 0 1.32 0 2 0 C2 0.66 2 1.32 2 2 C2.66 2.33 3.32 2.66 4 3 C5.0703125 4.84765625 5.0703125 4.84765625 6.125 7.0625 C6.47820312 7.79597656 6.83140625 8.52945312 7.1953125 9.28515625 C7.46085937 9.85105469 7.72640625 10.41695313 8 11 C7.01 11.495 7.01 11.495 6 12 C4.99157547 10.56839732 3.99352109 9.12948547 3 7.6875 C2.1646875 6.48673828 2.1646875 6.48673828 1.3125 5.26171875 C0 3 0 3 0 0 Z " fill="#1A1A1A" transform="translate(295,298)"/>
<path d="M0 0 C3.39417765 3.12621626 5.6062718 5.56541027 7 10 C7.66 10 8.32 10 9 10 C8.67 10.66 8.34 11.32 8 12 C7.34 12 6.68 12 6 12 C4.4921875 10.13671875 4.4921875 10.13671875 2.875 7.6875 C2.33617187 6.88699219 1.79734375 6.08648437 1.2421875 5.26171875 C0 3 0 3 0 0 Z " fill="#1A1A1A" transform="translate(262,250)"/>
<path d="M0 0 C3 1 3 1 4.38671875 3.28515625 C4.81597656 4.20167969 5.24523437 5.11820313 5.6875 6.0625 C6.34298828 7.44115234 6.34298828 7.44115234 7.01171875 8.84765625 C7.33785156 9.55792969 7.66398437 10.26820313 8 11 C7.01 11.495 7.01 11.495 6 12 C4.99157547 10.56839732 3.99352109 9.12948547 3 7.6875 C2.1646875 6.48673828 2.1646875 6.48673828 1.3125 5.26171875 C0 3 0 3 0 0 Z " fill="#161616" transform="translate(251,234)"/>
<path d="M0 0 C0.66 0 1.32 0 2 0 C3.98 3.63 5.96 7.26 8 11 C7.01 11.495 7.01 11.495 6 12 C4.99157547 10.56839732 3.99352109 9.12948547 3 7.6875 C2.1646875 6.48673828 2.1646875 6.48673828 1.3125 5.26171875 C0 3 0 3 0 0 Z " fill="#191919" transform="translate(440,380)"/>
<path d="M0 0 C0.66 0.66 1.32 1.32 2 2 C-0.20979308 4.81939117 -2.40062046 7.53058944 -5 10 C-5.99 9.67 -6.98 9.34 -8 9 C-5.36 6.03 -2.72 3.06 0 0 Z " fill="#212121" transform="translate(440,300)"/>
<path d="M0 0 C2.9156164 3.54039134 5.50127818 7.1626772 8 11 C7.01 11 6.02 11 5 11 C3.39453125 9.03125 3.39453125 9.03125 1.8125 6.5 C1.28269531 5.6646875 0.75289063 4.829375 0.20703125 3.96875 C-0.19128906 3.3190625 -0.58960938 2.669375 -1 2 C-0.67 1.34 -0.34 0.68 0 0 Z " fill="#1A1A1A" transform="translate(303,233)"/>
<path d="M0 0 C3.21880117 3.7935871 5.6163187 7.65829477 8 12 C7.01 12.495 7.01 12.495 6 13 C4.98868775 11.59138651 3.99133233 10.17274547 3 8.75 C2.1646875 7.56664062 2.1646875 7.56664062 1.3125 6.359375 C0 4 0 4 0 0 Z " fill="#181818" transform="translate(312,193)"/>
<path d="M0 0 C3.47132095 1.40929697 4.88093274 2.90605083 6.75 6.125 C7.39195312 7.21167969 7.39195312 7.21167969 8.046875 8.3203125 C8.51867187 9.15175781 8.51867187 9.15175781 9 10 C8.34 10.66 7.68 11.32 7 12 C5.82767315 10.3790787 4.6622923 8.75313167 3.5 7.125 C2.8503125 6.22007812 2.200625 5.31515625 1.53125 4.3828125 C0 2 0 2 0 0 Z " fill="#1B1B1B" transform="translate(175,178)"/>
<path d="M0 0 C0.66 0.66 1.32 1.32 2 2 C-2 8.57142857 -2 8.57142857 -6 10 C-6 6.41087588 -5.33563446 5.89142971 -3 3.3125 C-2.443125 2.68988281 -1.88625 2.06726563 -1.3125 1.42578125 C-0.879375 0.95527344 -0.44625 0.48476563 0 0 Z " fill="#1B1B1B" transform="translate(275,492)"/>
<path d="M0 0 C0.66 0.66 1.32 1.32 2 2 C-0.31 4.64 -2.62 7.28 -5 10 C-5.99 9.67 -6.98 9.34 -8 9 C-5.36 6.03 -2.72 3.06 0 0 Z " fill="#222222" transform="translate(336,421)"/>
<path d="M0 0 C0.33 0.99 0.66 1.98 1 3 C0.00390625 4.82421875 0.00390625 4.82421875 -1.4375 6.6875 C-1.91058594 7.31011719 -2.38367188 7.93273437 -2.87109375 8.57421875 C-3.24363281 9.04472656 -3.61617187 9.51523437 -4 10 C-4.66 9.67 -5.32 9.34 -6 9 C-4.68775452 5.06326356 -3.08089673 2.77280706 0 0 Z " fill="#131313" transform="translate(254,517)"/>
<path d="M0 0 C1.485 0.99 1.485 0.99 3 2 C3 2.99 3 3.98 3 5 C3.66 5 4.32 5 5 5 C5.66 6.32 6.32 7.64 7 9 C6.34 9.66 5.68 10.32 5 11 C3.02 7.7 1.04 4.4 -1 1 C-0.67 0.67 -0.34 0.34 0 0 Z " fill="#1D1D1D" transform="translate(437,504)"/>
<path d="M0 0 C0.66 0 1.32 0 2 0 C3.65 3.3 5.3 6.6 7 10 C6.01 10.495 6.01 10.495 5 11 C3.02 7.7 1.04 4.4 -1 1 C-0.67 0.67 -0.34 0.34 0 0 Z " fill="#171717" transform="translate(472,426)"/>
<path d="M0 0 C0.99 0.33 1.98 0.66 3 1 C2.07456291 2.34173403 1.13422595 3.67320159 0.1875 5 C-0.33457031 5.7425 -0.85664063 6.485 -1.39453125 7.25 C-1.92433594 7.8275 -2.45414062 8.405 -3 9 C-3.99 9 -4.98 9 -6 9 C-4.02 6.03 -2.04 3.06 0 0 Z " fill="#1C1C1C" transform="translate(303,414)"/>
<path d="M0 0 C3 1 3 1 4.203125 2.77734375 C4.54859375 3.49019531 4.8940625 4.20304687 5.25 4.9375 C5.78367187 6.00291016 5.78367187 6.00291016 6.328125 7.08984375 C6.54984375 7.72019531 6.7715625 8.35054688 7 9 C6.67 9.66 6.34 10.32 6 11 C5.34 9.35 4.68 7.7 4 6 C3.34 6 2.68 6 2 6 C2 5.01 2 4.02 2 3 C1.34 3 0.68 3 0 3 C0 2.01 0 1.02 0 0 Z " fill="#161616" transform="translate(385,354)"/>
<path d="M0 0 C0.33 0.99 0.66 1.98 1 3 C-0.21484375 4.82421875 -0.21484375 4.82421875 -1.9375 6.6875 C-2.50339844 7.31011719 -3.06929688 7.93273437 -3.65234375 8.57421875 C-4.09707031 9.04472656 -4.54179687 9.51523438 -5 10 C-5.99 9.67 -6.98 9.34 -8 9 C-5.94647466 5.91971199 -3.87056655 4.28173239 -1 2 C-0.67 1.34 -0.34 0.68 0 0 Z " fill="#0F0F0F" transform="translate(496,190)"/>
<path d="M0 0 C0.99 0.33 1.98 0.66 3 1 C0.36 3.97 -2.28 6.94 -5 10 C-5.66 9.34 -6.32 8.68 -7 8 C-4.69 5.36 -2.38 2.72 0 0 Z " fill="#1B1B1B" transform="translate(505,180)"/>
<path d="M0 0 C0.66 0.33 1.32 0.66 2 1 C0.68 1.99 -0.64 2.98 -2 4 C-1.34 2.68 -0.68 1.36 0 0 Z M-3 4 C-2.34 4.66 -1.68 5.32 -1 6 C-3.64 7.98 -6.28 9.96 -9 12 C-7.21844267 8.43688534 -5.83236991 6.64354525 -3 4 Z " fill="#E2E2E2" transform="translate(321,397)"/>
<path d="M0 0 C0.99 0 1.98 0 3 0 C4.60546875 1.96875 4.60546875 1.96875 6.1875 4.5 C6.71730469 5.3353125 7.24710937 6.170625 7.79296875 7.03125 C8.19128906 7.6809375 8.58960938 8.330625 9 9 C8.01 9.495 8.01 9.495 7 10 C7 9.34 7 8.68 7 8 C6.01 7.67 5.02 7.34 4 7 C2.41034429 4.78298853 1.27672514 2.42137527 0 0 Z " fill="#202020" transform="translate(416,400)"/>
<path d="M0 0 C0.66 0.66 1.32 1.32 2 2 C-0.31 4.64 -2.62 7.28 -5 10 C-5.66 9.34 -6.32 8.68 -7 8 C-4.69 5.36 -2.38 2.72 0 0 Z " fill="#1A1A1A" transform="translate(538,186)"/>
<path d="M0 0 C2.95929119 2.75520215 5.03681826 5.46627288 7 9 C6.01 9 5.02 9 4 9 C0.8217901 5.7309841 0 4.67834007 0 0 Z " fill="#1A1A1A" transform="translate(358,442)"/>
<path d="M0 0 C2.33524782 2.25740623 4.18705073 4.2805761 6 7 C5.67 7.99 5.34 8.98 5 10 C3.02 7.36 1.04 4.72 -1 2 C-0.67 1.34 -0.34 0.68 0 0 Z " fill="#1B1B1B" transform="translate(343,420)"/>
<path d="M0 0 C3.53233755 1.17744585 3.86308075 1.95605641 5.6875 5.0625 C6.12449219 5.79597656 6.56148438 6.52945313 7.01171875 7.28515625 C7.33785156 7.85105469 7.66398437 8.41695312 8 9 C6.68 8.67 5.36 8.34 4 8 C4 7.34 4 6.68 4 6 C3.34 6 2.68 6 2 6 C1.34 4.02 0.68 2.04 0 0 Z " fill="#1D1D1D" transform="translate(310,245)"/>
<path d="M0 0 C3.33557632 2.9905167 5.15083921 5.93184627 7 10 C6.01 10.495 6.01 10.495 5 11 C3.02 7.7 1.04 4.4 -1 1 C-0.67 0.67 -0.34 0.34 0 0 Z " fill="#1A1A1A" transform="translate(241,219)"/>
<path d="M0 0 C0.66 0.66 1.32 1.32 2 2 C-0.31 4.64 -2.62 7.28 -5 10 C-5.66 9.34 -6.32 8.68 -7 8 C-4.69 5.36 -2.38 2.72 0 0 Z " fill="#191919" transform="translate(524,158)"/>
<path d="M0 0 C4.66154042 1.49835228 5.86610751 4.88463591 8 9 C7.01 9.495 7.01 9.495 6 10 C4.99723227 8.52270825 3.99785546 7.04311423 3 5.5625 C2.443125 4.73878906 1.88625 3.91507812 1.3125 3.06640625 C0 1 0 1 0 0 Z " fill="#161616" transform="translate(487,450)"/>
<path d="M0 0 C0.33 0.66 0.66 1.32 1 2 C-0.65 3.98 -2.3 5.96 -4 8 C-4.66 7.67 -5.32 7.34 -6 7 C-4.52307692 2.32307692 -4.52307692 2.32307692 -1.875 0.6875 C-1.25625 0.460625 -0.6375 0.23375 0 0 Z " fill="#141414" transform="translate(281,441)"/>
<path d="M0 0 C2.33524782 2.25740623 4.18705073 4.2805761 6 7 C5.67 7.99 5.34 8.98 5 10 C0 4.5 0 4.5 0 0 Z " fill="#181818" transform="translate(250,285)"/>
<path d="M0 0 C2.96404505 2.80804268 5.44499019 5.18315774 7 9 C6.01 9.495 6.01 9.495 5 10 C4.15801693 8.90241493 3.32669329 7.79664683 2.5 6.6875 C2.0359375 6.07261719 1.571875 5.45773437 1.09375 4.82421875 C0 3 0 3 0 0 Z " fill="#191919" transform="translate(277,272)"/>
<path d="M0 0 C0.99 0 1.98 0 3 0 C4.38671875 1.75 4.38671875 1.75 5.6875 4 C6.12449219 4.7425 6.56148437 5.485 7.01171875 6.25 C7.33785156 6.8275 7.66398438 7.405 8 8 C6.078125 7.66015625 6.078125 7.66015625 4 7 C2.75 4.4375 2.75 4.4375 2 2 C1.34 2 0.68 2 0 2 C0 1.34 0 0.68 0 0 Z " fill="#202020" transform="translate(227,254)"/>
<path d="M0 0 C2.95929119 2.75520215 5.03681826 5.46627288 7 9 C5.25 8.9375 5.25 8.9375 3 8 C1.40498463 5.75835678 0.25456982 3.46433357 -1 1 C-0.67 0.67 -0.34 0.34 0 0 Z " fill="#1F1F1F" transform="translate(289,213)"/>
<path d="M0 0 C2.40072955 2.88087546 4.47291037 5.56404834 6 9 C2.66476748 7.61990379 0.81392049 6.15049348 -1 3 C-0.67 2.01 -0.34 1.02 0 0 Z " fill="#1B1B1B" transform="translate(279,198)"/>
<path d="M0 0 C2.66735273 2.48952921 4.55746343 4.63408134 6 8 C5.01 8 4.02 8 3 8 C3 7.34 3 6.68 3 6 C2.34 6 1.68 6 1 6 C0.34 4.35 -0.32 2.7 -1 1 C-0.67 0.67 -0.34 0.34 0 0 Z " fill="#252525" transform="translate(350,430)"/>
<path d="M0 0 C2.49415272 0.99766109 3.78740335 1.68616685 5.3125 3.9375 C6 6 6 6 5 9 C4.16094435 7.87926138 3.32892169 6.75325453 2.5 5.625 C2.0359375 4.99851562 1.571875 4.37203125 1.09375 3.7265625 C0 2 0 2 0 0 Z " fill="#131313" transform="translate(366,402)"/>
<path d="M0 0 C2.95929119 2.75520215 5.03681826 5.46627288 7 9 C5.1875 8.8125 5.1875 8.8125 3 8 C0.85802506 5.09303401 0 3.64478912 0 0 Z " fill="#1E1E1E" transform="translate(377,341)"/>
<path d="M0 0 C0.33 0.99 0.66 1.98 1 3 C-0.9375 5.6875 -0.9375 5.6875 -3 8 C-3.99 7.67 -4.98 7.34 -6 7 C-4.02 4.69 -2.04 2.38 0 0 Z " fill="#292929" transform="translate(248,523)"/>
<path d="M0 0 C2.61527381 2.36620011 4.26440562 4.942048 6 8 C5.01 8 4.02 8 3 8 C1.02 4.535 1.02 4.535 -1 1 C-0.67 0.67 -0.34 0.34 0 0 Z " fill="#262626" transform="translate(412,520)"/>
<path d="M0 0 C0.66 0.66 1.32 1.32 2 2 C0.02 4.31 -1.96 6.62 -4 9 C-4.66 8.34 -5.32 7.68 -6 7 C-4.02 4.69 -2.04 2.38 0 0 Z " fill="#171717" transform="translate(223,508)"/>
<path d="M0 0 C0.66 0 1.32 0 2 0 C0.63055898 2.94956528 -0.87830409 5.52468811 -3 8 C-3.66 8 -4.32 8 -5 8 C-4.34 6.35 -3.68 4.7 -3 3 C-2.34 3 -1.68 3 -1 3 C-0.67 2.01 -0.34 1.02 0 0 Z " fill="#101010" transform="translate(234,495)"/>
<path d="M0 0 C0.99 0 1.98 0 3 0 C5.25 2.8125 5.25 2.8125 7 6 C6.67 6.99 6.34 7.98 6 9 C4.02 6.03 2.04 3.06 0 0 Z " fill="#1B1B1B" transform="translate(386,485)"/>
<path d="M0 0 C2.5 2.25 2.5 2.25 5 5 C5 6.32 5 7.64 5 9 C0.57142857 3.85714286 0.57142857 3.85714286 0 0 Z " fill="#191919" transform="translate(504,473)"/>
<path d="M0 0 C0.66 0 1.32 0 2 0 C3.32 2.64 4.64 5.28 6 8 C5.01 8.495 5.01 8.495 4 9 C0 3.375 0 3.375 0 0 Z " fill="#1C1C1C" transform="translate(380,293)"/>
<path d="M0 0 C2.66735273 2.48952921 4.55746343 4.63408134 6 8 C5.01 8 4.02 8 3 8 C0.19744677 5.0936485 0 4.21174952 0 0 Z " fill="#1F1F1F" transform="translate(340,287)"/>
<path d="M0 0 C4 4.625 4 4.625 4 8 C3.34 8 2.68 8 2 8 C0.3125 5.6875 0.3125 5.6875 -1 3 C-0.67 2.01 -0.34 1.02 0 0 Z " fill="#202020" transform="translate(297,224)"/>
<path d="M0 0 C-0.54226981 3.79588866 -2.20127563 5.47211993 -5 8 C-5.33 7.34 -5.66 6.68 -6 6 C-4.90218919 2.70656758 -3.7827394 0 0 0 Z " fill="#151515" transform="translate(513,172)"/>
<path d="M0 0 C0.66 0.33 1.32 0.66 2 1 C0.02 3.31 -1.96 5.62 -4 8 C-4.66 7.34 -5.32 6.68 -6 6 C-4.02 4.02 -2.04 2.04 0 0 Z " fill="#181818" transform="translate(561,160)"/>
<path d="M0 0 C0.99 0 1.98 0 3 0 C3.99 2.31 4.98 4.62 6 7 C5.01 7.495 5.01 7.495 4 8 C0 2.25 0 2.25 0 0 Z " fill="#0F0F0F" transform="translate(564,561)"/>
<path d="M0 0 C2.66735273 2.48952921 4.55746343 4.63408134 6 8 C5.01 8 4.02 8 3 8 C0.89229241 5.11165997 0 3.61537605 0 0 Z " fill="#181818" transform="translate(431,548)"/>
<path d="M0 0 C4.42857143 5.14285714 4.42857143 5.14285714 5 9 C3.0625 7.875 3.0625 7.875 1 6 C0.25 2.8125 0.25 2.8125 0 0 Z " fill="#1C1C1C" transform="translate(440,432)"/>
<path d="M0 0 C2.62187494 1.04874998 3.79371361 1.64931313 5.25 4.125 C5.4975 4.74375 5.745 5.3625 6 6 C5.01 6 4.02 6 3 6 C0 2.66666667 0 2.66666667 0 0 Z " fill="#181818" transform="translate(329,273)"/>
<path d="M0 0 C0.66 0 1.32 0 2 0 C3.32 2.64 4.64 5.28 6 8 C5.01 8.495 5.01 8.495 4 9 C0 3.375 0 3.375 0 0 Z " fill="#1A1A1A" transform="translate(231,205)"/>
<path d="M0 0 C2.99324263 1.0975223 3.84610901 1.67682892 5.25 4.625 C5.4975 5.40875 5.745 6.1925 6 7 C5.01 7.495 5.01 7.495 4 8 C0 2.25 0 2.25 0 0 Z " fill="#0D0D0D" transform="translate(225,197)"/>
<path d="M0 0 C1.65 1.65 3.3 3.3 5 5 C4.67 5.99 4.34 6.98 4 8 C0 3.375 0 3.375 0 0 Z " fill="#1C1C1C" transform="translate(452,397)"/>
<path d="M0 0 C0.66 0.33 1.32 0.66 2 1 C-0.3125 3.5 -0.3125 3.5 -3 6 C-3.99 6 -4.98 6 -6 6 C-4.02 4.02 -2.04 2.04 0 0 Z " fill="#E5E5E5" transform="translate(428,273)"/>
<path d="M0 0 C3 1 3 1 4.6875 4.0625 C5.120625 5.031875 5.55375 6.00125 6 7 C5.01 7.495 5.01 7.495 4 8 C0 2.25 0 2.25 0 0 Z " fill="#141414" transform="translate(343,240)"/>
</svg>
